G75*
%MOIN*%
%OFA0B0*%
%FSLAX25Y25*%
%IPPOS*%
%LPD*%
%AMOC8*
5,1,8,0,0,1.08239X$1,22.5*
%
%ADD10C,0.09461*%
%ADD11R,0.04737X0.05131*%
%ADD12C,0.03162*%
%ADD13R,0.03950X0.04343*%
%ADD14R,0.05131X0.04737*%
%ADD15R,0.05800X0.03000*%
%ADD16R,0.03000X0.05800*%
%ADD17R,0.08200X0.08200*%
%ADD18OC8,0.08200*%
%ADD19C,0.08200*%
%ADD20C,0.06700*%
%ADD21C,0.06600*%
%ADD22R,0.05524X0.03083*%
%ADD23R,0.08674X0.08674*%
%ADD24R,0.10643X0.07493*%
%ADD25C,0.07531*%
%ADD26R,0.21800X0.08400*%
%ADD27R,0.08674X0.06509*%
%ADD28R,0.06706X0.03950*%
%ADD29R,0.03950X0.03950*%
%ADD30C,0.05162*%
D10*
X0031697Y0146957D03*
X0229799Y0024559D03*
D11*
X0128437Y0047654D03*
X0128437Y0054346D03*
X0064744Y0079697D03*
X0064744Y0086390D03*
X0058740Y0113110D03*
X0058740Y0119803D03*
X0057996Y0130858D03*
X0057996Y0137551D03*
X0089201Y0120209D03*
X0089201Y0113516D03*
X0129248Y0141461D03*
X0129248Y0148154D03*
X0169437Y0125496D03*
X0169437Y0118803D03*
X0226303Y0121913D03*
X0226303Y0115220D03*
X0226000Y0102846D03*
X0226000Y0096154D03*
D12*
X0066732Y0035461D03*
X0066732Y0115972D03*
D13*
X0144335Y0140398D03*
X0151815Y0140398D03*
X0148075Y0148665D03*
D14*
X0163087Y0147000D03*
X0169780Y0147000D03*
X0130827Y0125366D03*
X0124134Y0125366D03*
X0162630Y0110866D03*
X0169323Y0110866D03*
X0111972Y0052894D03*
X0105280Y0052894D03*
D15*
X0179285Y0104728D03*
X0179285Y0107878D03*
X0179285Y0111028D03*
X0179285Y0114177D03*
X0179285Y0117327D03*
X0179285Y0120476D03*
X0179285Y0123626D03*
X0179285Y0126776D03*
X0213085Y0126776D03*
X0213085Y0123626D03*
X0213085Y0120476D03*
X0213085Y0117327D03*
X0213085Y0114177D03*
X0213085Y0111028D03*
X0213085Y0107878D03*
X0213085Y0104728D03*
D16*
X0207209Y0098852D03*
X0204059Y0098852D03*
X0200909Y0098852D03*
X0197760Y0098852D03*
X0194610Y0098852D03*
X0191461Y0098852D03*
X0188311Y0098852D03*
X0185161Y0098852D03*
X0185161Y0132652D03*
X0188311Y0132652D03*
X0191461Y0132652D03*
X0194610Y0132652D03*
X0197760Y0132652D03*
X0200909Y0132652D03*
X0204059Y0132652D03*
X0207209Y0132652D03*
D17*
X0089374Y0031500D03*
D18*
X0099374Y0031500D03*
X0109374Y0031500D03*
X0109374Y0041500D03*
X0099374Y0041500D03*
X0089374Y0041500D03*
D19*
X0095938Y0129710D03*
X0070338Y0129710D03*
X0070338Y0147510D03*
X0095938Y0147510D03*
D20*
X0104500Y0084500D03*
X0104500Y0074500D03*
X0121303Y0074240D03*
X0121303Y0084240D03*
D21*
X0121303Y0084240D03*
X0121303Y0074240D03*
X0104500Y0074500D03*
X0104500Y0084500D03*
D22*
X0052760Y0093335D03*
X0052760Y0099240D03*
X0052760Y0105146D03*
D23*
X0040555Y0099240D03*
D24*
X0043886Y0120394D03*
X0043886Y0135354D03*
X0052748Y0078224D03*
X0052748Y0063264D03*
D25*
X0029102Y0082728D03*
X0029102Y0112728D03*
D26*
X0108673Y0103114D03*
X0146673Y0103114D03*
D27*
X0150862Y0077146D03*
X0184366Y0077146D03*
X0184366Y0024941D03*
X0150862Y0024941D03*
D28*
X0173303Y0033327D03*
X0173303Y0037657D03*
X0173303Y0041988D03*
X0173303Y0046319D03*
X0173303Y0050650D03*
X0173303Y0054980D03*
X0173303Y0059311D03*
X0173303Y0063642D03*
D29*
X0226000Y0078047D03*
X0226000Y0083953D03*
D30*
X0202500Y0087000D03*
X0193000Y0071000D03*
X0163000Y0090500D03*
X0167000Y0097000D03*
X0188500Y0106500D03*
X0198500Y0108000D03*
X0204000Y0117000D03*
X0188500Y0118500D03*
X0159000Y0123000D03*
X0153500Y0130500D03*
X0144000Y0121000D03*
X0119500Y0136500D03*
X0114500Y0142000D03*
X0110000Y0149500D03*
X0137500Y0146500D03*
X0105000Y0125000D03*
X0114000Y0120500D03*
X0091000Y0107000D03*
X0096000Y0091000D03*
X0064000Y0095000D03*
X0052000Y0086500D03*
X0042000Y0082500D03*
X0066500Y0073500D03*
X0067000Y0056500D03*
X0053500Y0052500D03*
X0125000Y0030500D03*
X0147500Y0044000D03*
X0155500Y0037500D03*
X0143000Y0057500D03*
X0128500Y0062000D03*
X0129000Y0072500D03*
X0137500Y0085500D03*
X0193000Y0048500D03*
X0218500Y0048500D03*
X0201500Y0031500D03*
X0224000Y0134000D03*
X0223000Y0141500D03*
X0212500Y0151500D03*
X0198500Y0142500D03*
M02*
