G75*
%MOIN*%
%OFA0B0*%
%FSLAX25Y25*%
%IPPOS*%
%LPD*%
%AMOC8*
5,1,8,0,0,1.08239X$1,22.5*
%
%ADD10C,0.09461*%
%ADD11R,0.08674X0.02769*%
%ADD12C,0.03162*%
%ADD13R,0.08200X0.08200*%
%ADD14OC8,0.08200*%
%ADD15C,0.08200*%
%ADD16C,0.06700*%
%ADD17C,0.06600*%
%ADD18C,0.07531*%
%ADD19C,0.05162*%
D10*
X0031697Y0146957D03*
X0229799Y0024559D03*
D11*
X0081693Y0065382D03*
X0081693Y0068531D03*
X0081693Y0071681D03*
X0081693Y0074831D03*
X0081693Y0077980D03*
X0081693Y0081130D03*
X0081693Y0084280D03*
X0081693Y0087429D03*
X0081693Y0090579D03*
X0081693Y0093728D03*
X0081693Y0096878D03*
X0081693Y0100028D03*
X0081693Y0103177D03*
X0081693Y0106327D03*
D12*
X0066732Y0035461D03*
X0066732Y0115972D03*
D13*
X0089374Y0031500D03*
D14*
X0099374Y0031500D03*
X0109374Y0031500D03*
X0109374Y0041500D03*
X0099374Y0041500D03*
X0089374Y0041500D03*
D15*
X0095938Y0129710D03*
X0070338Y0129710D03*
X0070338Y0147510D03*
X0095938Y0147510D03*
D16*
X0104500Y0084500D03*
X0104500Y0074500D03*
X0121303Y0074240D03*
X0121303Y0084240D03*
D17*
X0121303Y0084240D03*
X0121303Y0074240D03*
X0104500Y0074500D03*
X0104500Y0084500D03*
D18*
X0029102Y0082728D03*
X0029102Y0112728D03*
D19*
X0064000Y0095000D03*
X0052000Y0086500D03*
X0042000Y0082500D03*
X0066500Y0073500D03*
X0067000Y0056500D03*
X0053500Y0052500D03*
X0096000Y0091000D03*
X0091000Y0107000D03*
X0114000Y0120500D03*
X0105000Y0125000D03*
X0119500Y0136500D03*
X0114500Y0142000D03*
X0110000Y0149500D03*
X0137500Y0146500D03*
X0153500Y0130500D03*
X0159000Y0123000D03*
X0144000Y0121000D03*
X0167000Y0097000D03*
X0163000Y0090500D03*
X0137500Y0085500D03*
X0129000Y0072500D03*
X0128500Y0062000D03*
X0143000Y0057500D03*
X0147500Y0044000D03*
X0155500Y0037500D03*
X0125000Y0030500D03*
X0193000Y0048500D03*
X0218500Y0048500D03*
X0201500Y0031500D03*
X0193000Y0071000D03*
X0202500Y0087000D03*
X0188500Y0106500D03*
X0198500Y0108000D03*
X0204000Y0117000D03*
X0188500Y0118500D03*
X0224000Y0134000D03*
X0223000Y0141500D03*
X0212500Y0151500D03*
X0198500Y0142500D03*
M02*
