G75*
%MOIN*%
%OFA0B0*%
%FSLAX25Y25*%
%IPPOS*%
%LPD*%
%AMOC8*
5,1,8,0,0,1.08239X$1,22.5*
%
%ADD10C,0.00000*%
%ADD11R,0.03937X0.04331*%
%ADD12R,0.03150X0.03543*%
%ADD13R,0.04331X0.03937*%
%ADD14R,0.05000X0.02200*%
%ADD15R,0.02200X0.05000*%
%ADD16R,0.07400X0.07400*%
%ADD17OC8,0.07400*%
%ADD18C,0.07400*%
%ADD19C,0.05900*%
%ADD20R,0.04724X0.02283*%
%ADD21R,0.07874X0.07874*%
%ADD22R,0.09843X0.06693*%
%ADD23C,0.06731*%
%ADD24R,0.21000X0.07600*%
%ADD25R,0.07874X0.05709*%
%ADD26R,0.05906X0.03150*%
%ADD27R,0.03150X0.03150*%
%ADD28C,0.01000*%
%ADD29C,0.01600*%
%ADD30C,0.04362*%
%ADD31C,0.01200*%
D10*
X0021500Y0016500D02*
X0021500Y0155201D01*
X0236067Y0155201D01*
X0236067Y0016500D01*
X0021500Y0016500D01*
X0065551Y0035461D02*
X0065553Y0035530D01*
X0065559Y0035598D01*
X0065569Y0035666D01*
X0065583Y0035733D01*
X0065601Y0035800D01*
X0065622Y0035865D01*
X0065648Y0035929D01*
X0065677Y0035991D01*
X0065709Y0036051D01*
X0065745Y0036110D01*
X0065785Y0036166D01*
X0065827Y0036220D01*
X0065873Y0036271D01*
X0065922Y0036320D01*
X0065973Y0036366D01*
X0066027Y0036408D01*
X0066083Y0036448D01*
X0066141Y0036484D01*
X0066202Y0036516D01*
X0066264Y0036545D01*
X0066328Y0036571D01*
X0066393Y0036592D01*
X0066460Y0036610D01*
X0066527Y0036624D01*
X0066595Y0036634D01*
X0066663Y0036640D01*
X0066732Y0036642D01*
X0066801Y0036640D01*
X0066869Y0036634D01*
X0066937Y0036624D01*
X0067004Y0036610D01*
X0067071Y0036592D01*
X0067136Y0036571D01*
X0067200Y0036545D01*
X0067262Y0036516D01*
X0067322Y0036484D01*
X0067381Y0036448D01*
X0067437Y0036408D01*
X0067491Y0036366D01*
X0067542Y0036320D01*
X0067591Y0036271D01*
X0067637Y0036220D01*
X0067679Y0036166D01*
X0067719Y0036110D01*
X0067755Y0036051D01*
X0067787Y0035991D01*
X0067816Y0035929D01*
X0067842Y0035865D01*
X0067863Y0035800D01*
X0067881Y0035733D01*
X0067895Y0035666D01*
X0067905Y0035598D01*
X0067911Y0035530D01*
X0067913Y0035461D01*
X0067911Y0035392D01*
X0067905Y0035324D01*
X0067895Y0035256D01*
X0067881Y0035189D01*
X0067863Y0035122D01*
X0067842Y0035057D01*
X0067816Y0034993D01*
X0067787Y0034931D01*
X0067755Y0034870D01*
X0067719Y0034812D01*
X0067679Y0034756D01*
X0067637Y0034702D01*
X0067591Y0034651D01*
X0067542Y0034602D01*
X0067491Y0034556D01*
X0067437Y0034514D01*
X0067381Y0034474D01*
X0067323Y0034438D01*
X0067262Y0034406D01*
X0067200Y0034377D01*
X0067136Y0034351D01*
X0067071Y0034330D01*
X0067004Y0034312D01*
X0066937Y0034298D01*
X0066869Y0034288D01*
X0066801Y0034282D01*
X0066732Y0034280D01*
X0066663Y0034282D01*
X0066595Y0034288D01*
X0066527Y0034298D01*
X0066460Y0034312D01*
X0066393Y0034330D01*
X0066328Y0034351D01*
X0066264Y0034377D01*
X0066202Y0034406D01*
X0066141Y0034438D01*
X0066083Y0034474D01*
X0066027Y0034514D01*
X0065973Y0034556D01*
X0065922Y0034602D01*
X0065873Y0034651D01*
X0065827Y0034702D01*
X0065785Y0034756D01*
X0065745Y0034812D01*
X0065709Y0034870D01*
X0065677Y0034931D01*
X0065648Y0034993D01*
X0065622Y0035057D01*
X0065601Y0035122D01*
X0065583Y0035189D01*
X0065569Y0035256D01*
X0065559Y0035324D01*
X0065553Y0035392D01*
X0065551Y0035461D01*
X0101600Y0074500D02*
X0101602Y0074607D01*
X0101608Y0074714D01*
X0101618Y0074821D01*
X0101632Y0074927D01*
X0101649Y0075033D01*
X0101671Y0075138D01*
X0101697Y0075242D01*
X0101726Y0075345D01*
X0101759Y0075447D01*
X0101796Y0075548D01*
X0101836Y0075647D01*
X0101881Y0075744D01*
X0101928Y0075840D01*
X0101980Y0075935D01*
X0102034Y0076027D01*
X0102092Y0076117D01*
X0102154Y0076205D01*
X0102218Y0076290D01*
X0102286Y0076373D01*
X0102357Y0076454D01*
X0102431Y0076532D01*
X0102507Y0076607D01*
X0102586Y0076679D01*
X0102668Y0076748D01*
X0102752Y0076814D01*
X0102839Y0076877D01*
X0102928Y0076937D01*
X0103019Y0076993D01*
X0103112Y0077046D01*
X0103207Y0077096D01*
X0103304Y0077142D01*
X0103403Y0077184D01*
X0103503Y0077223D01*
X0103604Y0077258D01*
X0103706Y0077289D01*
X0103810Y0077317D01*
X0103915Y0077340D01*
X0104020Y0077360D01*
X0104126Y0077376D01*
X0104232Y0077388D01*
X0104339Y0077396D01*
X0104446Y0077400D01*
X0104554Y0077400D01*
X0104661Y0077396D01*
X0104768Y0077388D01*
X0104874Y0077376D01*
X0104980Y0077360D01*
X0105085Y0077340D01*
X0105190Y0077317D01*
X0105294Y0077289D01*
X0105396Y0077258D01*
X0105497Y0077223D01*
X0105597Y0077184D01*
X0105696Y0077142D01*
X0105793Y0077096D01*
X0105888Y0077046D01*
X0105981Y0076993D01*
X0106072Y0076937D01*
X0106161Y0076877D01*
X0106248Y0076814D01*
X0106332Y0076748D01*
X0106414Y0076679D01*
X0106493Y0076607D01*
X0106569Y0076532D01*
X0106643Y0076454D01*
X0106714Y0076373D01*
X0106782Y0076290D01*
X0106846Y0076205D01*
X0106908Y0076117D01*
X0106966Y0076027D01*
X0107020Y0075935D01*
X0107072Y0075840D01*
X0107119Y0075744D01*
X0107164Y0075647D01*
X0107204Y0075548D01*
X0107241Y0075447D01*
X0107274Y0075345D01*
X0107303Y0075242D01*
X0107329Y0075138D01*
X0107351Y0075033D01*
X0107368Y0074927D01*
X0107382Y0074821D01*
X0107392Y0074714D01*
X0107398Y0074607D01*
X0107400Y0074500D01*
X0107398Y0074393D01*
X0107392Y0074286D01*
X0107382Y0074179D01*
X0107368Y0074073D01*
X0107351Y0073967D01*
X0107329Y0073862D01*
X0107303Y0073758D01*
X0107274Y0073655D01*
X0107241Y0073553D01*
X0107204Y0073452D01*
X0107164Y0073353D01*
X0107119Y0073256D01*
X0107072Y0073160D01*
X0107020Y0073065D01*
X0106966Y0072973D01*
X0106908Y0072883D01*
X0106846Y0072795D01*
X0106782Y0072710D01*
X0106714Y0072627D01*
X0106643Y0072546D01*
X0106569Y0072468D01*
X0106493Y0072393D01*
X0106414Y0072321D01*
X0106332Y0072252D01*
X0106248Y0072186D01*
X0106161Y0072123D01*
X0106072Y0072063D01*
X0105981Y0072007D01*
X0105888Y0071954D01*
X0105793Y0071904D01*
X0105696Y0071858D01*
X0105597Y0071816D01*
X0105497Y0071777D01*
X0105396Y0071742D01*
X0105294Y0071711D01*
X0105190Y0071683D01*
X0105085Y0071660D01*
X0104980Y0071640D01*
X0104874Y0071624D01*
X0104768Y0071612D01*
X0104661Y0071604D01*
X0104554Y0071600D01*
X0104446Y0071600D01*
X0104339Y0071604D01*
X0104232Y0071612D01*
X0104126Y0071624D01*
X0104020Y0071640D01*
X0103915Y0071660D01*
X0103810Y0071683D01*
X0103706Y0071711D01*
X0103604Y0071742D01*
X0103503Y0071777D01*
X0103403Y0071816D01*
X0103304Y0071858D01*
X0103207Y0071904D01*
X0103112Y0071954D01*
X0103019Y0072007D01*
X0102928Y0072063D01*
X0102839Y0072123D01*
X0102752Y0072186D01*
X0102668Y0072252D01*
X0102586Y0072321D01*
X0102507Y0072393D01*
X0102431Y0072468D01*
X0102357Y0072546D01*
X0102286Y0072627D01*
X0102218Y0072710D01*
X0102154Y0072795D01*
X0102092Y0072883D01*
X0102034Y0072973D01*
X0101980Y0073065D01*
X0101928Y0073160D01*
X0101881Y0073256D01*
X0101836Y0073353D01*
X0101796Y0073452D01*
X0101759Y0073553D01*
X0101726Y0073655D01*
X0101697Y0073758D01*
X0101671Y0073862D01*
X0101649Y0073967D01*
X0101632Y0074073D01*
X0101618Y0074179D01*
X0101608Y0074286D01*
X0101602Y0074393D01*
X0101600Y0074500D01*
X0101600Y0084500D02*
X0101602Y0084607D01*
X0101608Y0084714D01*
X0101618Y0084821D01*
X0101632Y0084927D01*
X0101649Y0085033D01*
X0101671Y0085138D01*
X0101697Y0085242D01*
X0101726Y0085345D01*
X0101759Y0085447D01*
X0101796Y0085548D01*
X0101836Y0085647D01*
X0101881Y0085744D01*
X0101928Y0085840D01*
X0101980Y0085935D01*
X0102034Y0086027D01*
X0102092Y0086117D01*
X0102154Y0086205D01*
X0102218Y0086290D01*
X0102286Y0086373D01*
X0102357Y0086454D01*
X0102431Y0086532D01*
X0102507Y0086607D01*
X0102586Y0086679D01*
X0102668Y0086748D01*
X0102752Y0086814D01*
X0102839Y0086877D01*
X0102928Y0086937D01*
X0103019Y0086993D01*
X0103112Y0087046D01*
X0103207Y0087096D01*
X0103304Y0087142D01*
X0103403Y0087184D01*
X0103503Y0087223D01*
X0103604Y0087258D01*
X0103706Y0087289D01*
X0103810Y0087317D01*
X0103915Y0087340D01*
X0104020Y0087360D01*
X0104126Y0087376D01*
X0104232Y0087388D01*
X0104339Y0087396D01*
X0104446Y0087400D01*
X0104554Y0087400D01*
X0104661Y0087396D01*
X0104768Y0087388D01*
X0104874Y0087376D01*
X0104980Y0087360D01*
X0105085Y0087340D01*
X0105190Y0087317D01*
X0105294Y0087289D01*
X0105396Y0087258D01*
X0105497Y0087223D01*
X0105597Y0087184D01*
X0105696Y0087142D01*
X0105793Y0087096D01*
X0105888Y0087046D01*
X0105981Y0086993D01*
X0106072Y0086937D01*
X0106161Y0086877D01*
X0106248Y0086814D01*
X0106332Y0086748D01*
X0106414Y0086679D01*
X0106493Y0086607D01*
X0106569Y0086532D01*
X0106643Y0086454D01*
X0106714Y0086373D01*
X0106782Y0086290D01*
X0106846Y0086205D01*
X0106908Y0086117D01*
X0106966Y0086027D01*
X0107020Y0085935D01*
X0107072Y0085840D01*
X0107119Y0085744D01*
X0107164Y0085647D01*
X0107204Y0085548D01*
X0107241Y0085447D01*
X0107274Y0085345D01*
X0107303Y0085242D01*
X0107329Y0085138D01*
X0107351Y0085033D01*
X0107368Y0084927D01*
X0107382Y0084821D01*
X0107392Y0084714D01*
X0107398Y0084607D01*
X0107400Y0084500D01*
X0107398Y0084393D01*
X0107392Y0084286D01*
X0107382Y0084179D01*
X0107368Y0084073D01*
X0107351Y0083967D01*
X0107329Y0083862D01*
X0107303Y0083758D01*
X0107274Y0083655D01*
X0107241Y0083553D01*
X0107204Y0083452D01*
X0107164Y0083353D01*
X0107119Y0083256D01*
X0107072Y0083160D01*
X0107020Y0083065D01*
X0106966Y0082973D01*
X0106908Y0082883D01*
X0106846Y0082795D01*
X0106782Y0082710D01*
X0106714Y0082627D01*
X0106643Y0082546D01*
X0106569Y0082468D01*
X0106493Y0082393D01*
X0106414Y0082321D01*
X0106332Y0082252D01*
X0106248Y0082186D01*
X0106161Y0082123D01*
X0106072Y0082063D01*
X0105981Y0082007D01*
X0105888Y0081954D01*
X0105793Y0081904D01*
X0105696Y0081858D01*
X0105597Y0081816D01*
X0105497Y0081777D01*
X0105396Y0081742D01*
X0105294Y0081711D01*
X0105190Y0081683D01*
X0105085Y0081660D01*
X0104980Y0081640D01*
X0104874Y0081624D01*
X0104768Y0081612D01*
X0104661Y0081604D01*
X0104554Y0081600D01*
X0104446Y0081600D01*
X0104339Y0081604D01*
X0104232Y0081612D01*
X0104126Y0081624D01*
X0104020Y0081640D01*
X0103915Y0081660D01*
X0103810Y0081683D01*
X0103706Y0081711D01*
X0103604Y0081742D01*
X0103503Y0081777D01*
X0103403Y0081816D01*
X0103304Y0081858D01*
X0103207Y0081904D01*
X0103112Y0081954D01*
X0103019Y0082007D01*
X0102928Y0082063D01*
X0102839Y0082123D01*
X0102752Y0082186D01*
X0102668Y0082252D01*
X0102586Y0082321D01*
X0102507Y0082393D01*
X0102431Y0082468D01*
X0102357Y0082546D01*
X0102286Y0082627D01*
X0102218Y0082710D01*
X0102154Y0082795D01*
X0102092Y0082883D01*
X0102034Y0082973D01*
X0101980Y0083065D01*
X0101928Y0083160D01*
X0101881Y0083256D01*
X0101836Y0083353D01*
X0101796Y0083452D01*
X0101759Y0083553D01*
X0101726Y0083655D01*
X0101697Y0083758D01*
X0101671Y0083862D01*
X0101649Y0083967D01*
X0101632Y0084073D01*
X0101618Y0084179D01*
X0101608Y0084286D01*
X0101602Y0084393D01*
X0101600Y0084500D01*
X0118403Y0084240D02*
X0118405Y0084347D01*
X0118411Y0084454D01*
X0118421Y0084561D01*
X0118435Y0084667D01*
X0118452Y0084773D01*
X0118474Y0084878D01*
X0118500Y0084982D01*
X0118529Y0085085D01*
X0118562Y0085187D01*
X0118599Y0085288D01*
X0118639Y0085387D01*
X0118684Y0085484D01*
X0118731Y0085580D01*
X0118783Y0085675D01*
X0118837Y0085767D01*
X0118895Y0085857D01*
X0118957Y0085945D01*
X0119021Y0086030D01*
X0119089Y0086113D01*
X0119160Y0086194D01*
X0119234Y0086272D01*
X0119310Y0086347D01*
X0119389Y0086419D01*
X0119471Y0086488D01*
X0119555Y0086554D01*
X0119642Y0086617D01*
X0119731Y0086677D01*
X0119822Y0086733D01*
X0119915Y0086786D01*
X0120010Y0086836D01*
X0120107Y0086882D01*
X0120206Y0086924D01*
X0120306Y0086963D01*
X0120407Y0086998D01*
X0120509Y0087029D01*
X0120613Y0087057D01*
X0120718Y0087080D01*
X0120823Y0087100D01*
X0120929Y0087116D01*
X0121035Y0087128D01*
X0121142Y0087136D01*
X0121249Y0087140D01*
X0121357Y0087140D01*
X0121464Y0087136D01*
X0121571Y0087128D01*
X0121677Y0087116D01*
X0121783Y0087100D01*
X0121888Y0087080D01*
X0121993Y0087057D01*
X0122097Y0087029D01*
X0122199Y0086998D01*
X0122300Y0086963D01*
X0122400Y0086924D01*
X0122499Y0086882D01*
X0122596Y0086836D01*
X0122691Y0086786D01*
X0122784Y0086733D01*
X0122875Y0086677D01*
X0122964Y0086617D01*
X0123051Y0086554D01*
X0123135Y0086488D01*
X0123217Y0086419D01*
X0123296Y0086347D01*
X0123372Y0086272D01*
X0123446Y0086194D01*
X0123517Y0086113D01*
X0123585Y0086030D01*
X0123649Y0085945D01*
X0123711Y0085857D01*
X0123769Y0085767D01*
X0123823Y0085675D01*
X0123875Y0085580D01*
X0123922Y0085484D01*
X0123967Y0085387D01*
X0124007Y0085288D01*
X0124044Y0085187D01*
X0124077Y0085085D01*
X0124106Y0084982D01*
X0124132Y0084878D01*
X0124154Y0084773D01*
X0124171Y0084667D01*
X0124185Y0084561D01*
X0124195Y0084454D01*
X0124201Y0084347D01*
X0124203Y0084240D01*
X0124201Y0084133D01*
X0124195Y0084026D01*
X0124185Y0083919D01*
X0124171Y0083813D01*
X0124154Y0083707D01*
X0124132Y0083602D01*
X0124106Y0083498D01*
X0124077Y0083395D01*
X0124044Y0083293D01*
X0124007Y0083192D01*
X0123967Y0083093D01*
X0123922Y0082996D01*
X0123875Y0082900D01*
X0123823Y0082805D01*
X0123769Y0082713D01*
X0123711Y0082623D01*
X0123649Y0082535D01*
X0123585Y0082450D01*
X0123517Y0082367D01*
X0123446Y0082286D01*
X0123372Y0082208D01*
X0123296Y0082133D01*
X0123217Y0082061D01*
X0123135Y0081992D01*
X0123051Y0081926D01*
X0122964Y0081863D01*
X0122875Y0081803D01*
X0122784Y0081747D01*
X0122691Y0081694D01*
X0122596Y0081644D01*
X0122499Y0081598D01*
X0122400Y0081556D01*
X0122300Y0081517D01*
X0122199Y0081482D01*
X0122097Y0081451D01*
X0121993Y0081423D01*
X0121888Y0081400D01*
X0121783Y0081380D01*
X0121677Y0081364D01*
X0121571Y0081352D01*
X0121464Y0081344D01*
X0121357Y0081340D01*
X0121249Y0081340D01*
X0121142Y0081344D01*
X0121035Y0081352D01*
X0120929Y0081364D01*
X0120823Y0081380D01*
X0120718Y0081400D01*
X0120613Y0081423D01*
X0120509Y0081451D01*
X0120407Y0081482D01*
X0120306Y0081517D01*
X0120206Y0081556D01*
X0120107Y0081598D01*
X0120010Y0081644D01*
X0119915Y0081694D01*
X0119822Y0081747D01*
X0119731Y0081803D01*
X0119642Y0081863D01*
X0119555Y0081926D01*
X0119471Y0081992D01*
X0119389Y0082061D01*
X0119310Y0082133D01*
X0119234Y0082208D01*
X0119160Y0082286D01*
X0119089Y0082367D01*
X0119021Y0082450D01*
X0118957Y0082535D01*
X0118895Y0082623D01*
X0118837Y0082713D01*
X0118783Y0082805D01*
X0118731Y0082900D01*
X0118684Y0082996D01*
X0118639Y0083093D01*
X0118599Y0083192D01*
X0118562Y0083293D01*
X0118529Y0083395D01*
X0118500Y0083498D01*
X0118474Y0083602D01*
X0118452Y0083707D01*
X0118435Y0083813D01*
X0118421Y0083919D01*
X0118411Y0084026D01*
X0118405Y0084133D01*
X0118403Y0084240D01*
X0118403Y0074240D02*
X0118405Y0074347D01*
X0118411Y0074454D01*
X0118421Y0074561D01*
X0118435Y0074667D01*
X0118452Y0074773D01*
X0118474Y0074878D01*
X0118500Y0074982D01*
X0118529Y0075085D01*
X0118562Y0075187D01*
X0118599Y0075288D01*
X0118639Y0075387D01*
X0118684Y0075484D01*
X0118731Y0075580D01*
X0118783Y0075675D01*
X0118837Y0075767D01*
X0118895Y0075857D01*
X0118957Y0075945D01*
X0119021Y0076030D01*
X0119089Y0076113D01*
X0119160Y0076194D01*
X0119234Y0076272D01*
X0119310Y0076347D01*
X0119389Y0076419D01*
X0119471Y0076488D01*
X0119555Y0076554D01*
X0119642Y0076617D01*
X0119731Y0076677D01*
X0119822Y0076733D01*
X0119915Y0076786D01*
X0120010Y0076836D01*
X0120107Y0076882D01*
X0120206Y0076924D01*
X0120306Y0076963D01*
X0120407Y0076998D01*
X0120509Y0077029D01*
X0120613Y0077057D01*
X0120718Y0077080D01*
X0120823Y0077100D01*
X0120929Y0077116D01*
X0121035Y0077128D01*
X0121142Y0077136D01*
X0121249Y0077140D01*
X0121357Y0077140D01*
X0121464Y0077136D01*
X0121571Y0077128D01*
X0121677Y0077116D01*
X0121783Y0077100D01*
X0121888Y0077080D01*
X0121993Y0077057D01*
X0122097Y0077029D01*
X0122199Y0076998D01*
X0122300Y0076963D01*
X0122400Y0076924D01*
X0122499Y0076882D01*
X0122596Y0076836D01*
X0122691Y0076786D01*
X0122784Y0076733D01*
X0122875Y0076677D01*
X0122964Y0076617D01*
X0123051Y0076554D01*
X0123135Y0076488D01*
X0123217Y0076419D01*
X0123296Y0076347D01*
X0123372Y0076272D01*
X0123446Y0076194D01*
X0123517Y0076113D01*
X0123585Y0076030D01*
X0123649Y0075945D01*
X0123711Y0075857D01*
X0123769Y0075767D01*
X0123823Y0075675D01*
X0123875Y0075580D01*
X0123922Y0075484D01*
X0123967Y0075387D01*
X0124007Y0075288D01*
X0124044Y0075187D01*
X0124077Y0075085D01*
X0124106Y0074982D01*
X0124132Y0074878D01*
X0124154Y0074773D01*
X0124171Y0074667D01*
X0124185Y0074561D01*
X0124195Y0074454D01*
X0124201Y0074347D01*
X0124203Y0074240D01*
X0124201Y0074133D01*
X0124195Y0074026D01*
X0124185Y0073919D01*
X0124171Y0073813D01*
X0124154Y0073707D01*
X0124132Y0073602D01*
X0124106Y0073498D01*
X0124077Y0073395D01*
X0124044Y0073293D01*
X0124007Y0073192D01*
X0123967Y0073093D01*
X0123922Y0072996D01*
X0123875Y0072900D01*
X0123823Y0072805D01*
X0123769Y0072713D01*
X0123711Y0072623D01*
X0123649Y0072535D01*
X0123585Y0072450D01*
X0123517Y0072367D01*
X0123446Y0072286D01*
X0123372Y0072208D01*
X0123296Y0072133D01*
X0123217Y0072061D01*
X0123135Y0071992D01*
X0123051Y0071926D01*
X0122964Y0071863D01*
X0122875Y0071803D01*
X0122784Y0071747D01*
X0122691Y0071694D01*
X0122596Y0071644D01*
X0122499Y0071598D01*
X0122400Y0071556D01*
X0122300Y0071517D01*
X0122199Y0071482D01*
X0122097Y0071451D01*
X0121993Y0071423D01*
X0121888Y0071400D01*
X0121783Y0071380D01*
X0121677Y0071364D01*
X0121571Y0071352D01*
X0121464Y0071344D01*
X0121357Y0071340D01*
X0121249Y0071340D01*
X0121142Y0071344D01*
X0121035Y0071352D01*
X0120929Y0071364D01*
X0120823Y0071380D01*
X0120718Y0071400D01*
X0120613Y0071423D01*
X0120509Y0071451D01*
X0120407Y0071482D01*
X0120306Y0071517D01*
X0120206Y0071556D01*
X0120107Y0071598D01*
X0120010Y0071644D01*
X0119915Y0071694D01*
X0119822Y0071747D01*
X0119731Y0071803D01*
X0119642Y0071863D01*
X0119555Y0071926D01*
X0119471Y0071992D01*
X0119389Y0072061D01*
X0119310Y0072133D01*
X0119234Y0072208D01*
X0119160Y0072286D01*
X0119089Y0072367D01*
X0119021Y0072450D01*
X0118957Y0072535D01*
X0118895Y0072623D01*
X0118837Y0072713D01*
X0118783Y0072805D01*
X0118731Y0072900D01*
X0118684Y0072996D01*
X0118639Y0073093D01*
X0118599Y0073192D01*
X0118562Y0073293D01*
X0118529Y0073395D01*
X0118500Y0073498D01*
X0118474Y0073602D01*
X0118452Y0073707D01*
X0118435Y0073813D01*
X0118421Y0073919D01*
X0118411Y0074026D01*
X0118405Y0074133D01*
X0118403Y0074240D01*
X0065551Y0115972D02*
X0065553Y0116041D01*
X0065559Y0116109D01*
X0065569Y0116177D01*
X0065583Y0116244D01*
X0065601Y0116311D01*
X0065622Y0116376D01*
X0065648Y0116440D01*
X0065677Y0116502D01*
X0065709Y0116562D01*
X0065745Y0116621D01*
X0065785Y0116677D01*
X0065827Y0116731D01*
X0065873Y0116782D01*
X0065922Y0116831D01*
X0065973Y0116877D01*
X0066027Y0116919D01*
X0066083Y0116959D01*
X0066141Y0116995D01*
X0066202Y0117027D01*
X0066264Y0117056D01*
X0066328Y0117082D01*
X0066393Y0117103D01*
X0066460Y0117121D01*
X0066527Y0117135D01*
X0066595Y0117145D01*
X0066663Y0117151D01*
X0066732Y0117153D01*
X0066801Y0117151D01*
X0066869Y0117145D01*
X0066937Y0117135D01*
X0067004Y0117121D01*
X0067071Y0117103D01*
X0067136Y0117082D01*
X0067200Y0117056D01*
X0067262Y0117027D01*
X0067322Y0116995D01*
X0067381Y0116959D01*
X0067437Y0116919D01*
X0067491Y0116877D01*
X0067542Y0116831D01*
X0067591Y0116782D01*
X0067637Y0116731D01*
X0067679Y0116677D01*
X0067719Y0116621D01*
X0067755Y0116562D01*
X0067787Y0116502D01*
X0067816Y0116440D01*
X0067842Y0116376D01*
X0067863Y0116311D01*
X0067881Y0116244D01*
X0067895Y0116177D01*
X0067905Y0116109D01*
X0067911Y0116041D01*
X0067913Y0115972D01*
X0067911Y0115903D01*
X0067905Y0115835D01*
X0067895Y0115767D01*
X0067881Y0115700D01*
X0067863Y0115633D01*
X0067842Y0115568D01*
X0067816Y0115504D01*
X0067787Y0115442D01*
X0067755Y0115381D01*
X0067719Y0115323D01*
X0067679Y0115267D01*
X0067637Y0115213D01*
X0067591Y0115162D01*
X0067542Y0115113D01*
X0067491Y0115067D01*
X0067437Y0115025D01*
X0067381Y0114985D01*
X0067323Y0114949D01*
X0067262Y0114917D01*
X0067200Y0114888D01*
X0067136Y0114862D01*
X0067071Y0114841D01*
X0067004Y0114823D01*
X0066937Y0114809D01*
X0066869Y0114799D01*
X0066801Y0114793D01*
X0066732Y0114791D01*
X0066663Y0114793D01*
X0066595Y0114799D01*
X0066527Y0114809D01*
X0066460Y0114823D01*
X0066393Y0114841D01*
X0066328Y0114862D01*
X0066264Y0114888D01*
X0066202Y0114917D01*
X0066141Y0114949D01*
X0066083Y0114985D01*
X0066027Y0115025D01*
X0065973Y0115067D01*
X0065922Y0115113D01*
X0065873Y0115162D01*
X0065827Y0115213D01*
X0065785Y0115267D01*
X0065745Y0115323D01*
X0065709Y0115381D01*
X0065677Y0115442D01*
X0065648Y0115504D01*
X0065622Y0115568D01*
X0065601Y0115633D01*
X0065583Y0115700D01*
X0065569Y0115767D01*
X0065559Y0115835D01*
X0065553Y0115903D01*
X0065551Y0115972D01*
X0027366Y0146957D02*
X0027368Y0147088D01*
X0027374Y0147220D01*
X0027384Y0147351D01*
X0027398Y0147482D01*
X0027416Y0147612D01*
X0027438Y0147741D01*
X0027463Y0147870D01*
X0027493Y0147998D01*
X0027527Y0148125D01*
X0027564Y0148252D01*
X0027605Y0148376D01*
X0027650Y0148500D01*
X0027699Y0148622D01*
X0027751Y0148743D01*
X0027807Y0148861D01*
X0027867Y0148979D01*
X0027930Y0149094D01*
X0027997Y0149207D01*
X0028067Y0149319D01*
X0028140Y0149428D01*
X0028216Y0149534D01*
X0028296Y0149639D01*
X0028379Y0149741D01*
X0028465Y0149840D01*
X0028554Y0149937D01*
X0028646Y0150031D01*
X0028741Y0150122D01*
X0028838Y0150211D01*
X0028938Y0150296D01*
X0029041Y0150378D01*
X0029146Y0150457D01*
X0029253Y0150533D01*
X0029363Y0150605D01*
X0029475Y0150674D01*
X0029589Y0150740D01*
X0029704Y0150802D01*
X0029822Y0150861D01*
X0029941Y0150916D01*
X0030062Y0150968D01*
X0030185Y0151015D01*
X0030309Y0151059D01*
X0030434Y0151100D01*
X0030560Y0151136D01*
X0030688Y0151169D01*
X0030816Y0151197D01*
X0030945Y0151222D01*
X0031075Y0151243D01*
X0031205Y0151260D01*
X0031336Y0151273D01*
X0031467Y0151282D01*
X0031598Y0151287D01*
X0031730Y0151288D01*
X0031861Y0151285D01*
X0031993Y0151278D01*
X0032124Y0151267D01*
X0032254Y0151252D01*
X0032384Y0151233D01*
X0032514Y0151210D01*
X0032642Y0151184D01*
X0032770Y0151153D01*
X0032897Y0151118D01*
X0033023Y0151080D01*
X0033147Y0151038D01*
X0033271Y0150992D01*
X0033392Y0150942D01*
X0033512Y0150889D01*
X0033631Y0150832D01*
X0033748Y0150772D01*
X0033862Y0150708D01*
X0033975Y0150640D01*
X0034086Y0150569D01*
X0034195Y0150495D01*
X0034301Y0150418D01*
X0034405Y0150337D01*
X0034506Y0150254D01*
X0034605Y0150167D01*
X0034701Y0150077D01*
X0034794Y0149984D01*
X0034885Y0149889D01*
X0034972Y0149791D01*
X0035057Y0149690D01*
X0035138Y0149587D01*
X0035216Y0149481D01*
X0035291Y0149373D01*
X0035363Y0149263D01*
X0035431Y0149151D01*
X0035496Y0149037D01*
X0035557Y0148920D01*
X0035615Y0148802D01*
X0035669Y0148682D01*
X0035720Y0148561D01*
X0035767Y0148438D01*
X0035810Y0148314D01*
X0035849Y0148189D01*
X0035885Y0148062D01*
X0035916Y0147934D01*
X0035944Y0147806D01*
X0035968Y0147677D01*
X0035988Y0147547D01*
X0036004Y0147416D01*
X0036016Y0147285D01*
X0036024Y0147154D01*
X0036028Y0147023D01*
X0036028Y0146891D01*
X0036024Y0146760D01*
X0036016Y0146629D01*
X0036004Y0146498D01*
X0035988Y0146367D01*
X0035968Y0146237D01*
X0035944Y0146108D01*
X0035916Y0145980D01*
X0035885Y0145852D01*
X0035849Y0145725D01*
X0035810Y0145600D01*
X0035767Y0145476D01*
X0035720Y0145353D01*
X0035669Y0145232D01*
X0035615Y0145112D01*
X0035557Y0144994D01*
X0035496Y0144877D01*
X0035431Y0144763D01*
X0035363Y0144651D01*
X0035291Y0144541D01*
X0035216Y0144433D01*
X0035138Y0144327D01*
X0035057Y0144224D01*
X0034972Y0144123D01*
X0034885Y0144025D01*
X0034794Y0143930D01*
X0034701Y0143837D01*
X0034605Y0143747D01*
X0034506Y0143660D01*
X0034405Y0143577D01*
X0034301Y0143496D01*
X0034195Y0143419D01*
X0034086Y0143345D01*
X0033975Y0143274D01*
X0033863Y0143206D01*
X0033748Y0143142D01*
X0033631Y0143082D01*
X0033512Y0143025D01*
X0033392Y0142972D01*
X0033271Y0142922D01*
X0033147Y0142876D01*
X0033023Y0142834D01*
X0032897Y0142796D01*
X0032770Y0142761D01*
X0032642Y0142730D01*
X0032514Y0142704D01*
X0032384Y0142681D01*
X0032254Y0142662D01*
X0032124Y0142647D01*
X0031993Y0142636D01*
X0031861Y0142629D01*
X0031730Y0142626D01*
X0031598Y0142627D01*
X0031467Y0142632D01*
X0031336Y0142641D01*
X0031205Y0142654D01*
X0031075Y0142671D01*
X0030945Y0142692D01*
X0030816Y0142717D01*
X0030688Y0142745D01*
X0030560Y0142778D01*
X0030434Y0142814D01*
X0030309Y0142855D01*
X0030185Y0142899D01*
X0030062Y0142946D01*
X0029941Y0142998D01*
X0029822Y0143053D01*
X0029704Y0143112D01*
X0029589Y0143174D01*
X0029475Y0143240D01*
X0029363Y0143309D01*
X0029253Y0143381D01*
X0029146Y0143457D01*
X0029041Y0143536D01*
X0028938Y0143618D01*
X0028838Y0143703D01*
X0028741Y0143792D01*
X0028646Y0143883D01*
X0028554Y0143977D01*
X0028465Y0144074D01*
X0028379Y0144173D01*
X0028296Y0144275D01*
X0028216Y0144380D01*
X0028140Y0144486D01*
X0028067Y0144595D01*
X0027997Y0144707D01*
X0027930Y0144820D01*
X0027867Y0144935D01*
X0027807Y0145053D01*
X0027751Y0145171D01*
X0027699Y0145292D01*
X0027650Y0145414D01*
X0027605Y0145538D01*
X0027564Y0145662D01*
X0027527Y0145789D01*
X0027493Y0145916D01*
X0027463Y0146044D01*
X0027438Y0146173D01*
X0027416Y0146302D01*
X0027398Y0146432D01*
X0027384Y0146563D01*
X0027374Y0146694D01*
X0027368Y0146826D01*
X0027366Y0146957D01*
X0225468Y0024559D02*
X0225470Y0024690D01*
X0225476Y0024822D01*
X0225486Y0024953D01*
X0225500Y0025084D01*
X0225518Y0025214D01*
X0225540Y0025343D01*
X0225565Y0025472D01*
X0225595Y0025600D01*
X0225629Y0025727D01*
X0225666Y0025854D01*
X0225707Y0025978D01*
X0225752Y0026102D01*
X0225801Y0026224D01*
X0225853Y0026345D01*
X0225909Y0026463D01*
X0225969Y0026581D01*
X0226032Y0026696D01*
X0226099Y0026809D01*
X0226169Y0026921D01*
X0226242Y0027030D01*
X0226318Y0027136D01*
X0226398Y0027241D01*
X0226481Y0027343D01*
X0226567Y0027442D01*
X0226656Y0027539D01*
X0226748Y0027633D01*
X0226843Y0027724D01*
X0226940Y0027813D01*
X0227040Y0027898D01*
X0227143Y0027980D01*
X0227248Y0028059D01*
X0227355Y0028135D01*
X0227465Y0028207D01*
X0227577Y0028276D01*
X0227691Y0028342D01*
X0227806Y0028404D01*
X0227924Y0028463D01*
X0228043Y0028518D01*
X0228164Y0028570D01*
X0228287Y0028617D01*
X0228411Y0028661D01*
X0228536Y0028702D01*
X0228662Y0028738D01*
X0228790Y0028771D01*
X0228918Y0028799D01*
X0229047Y0028824D01*
X0229177Y0028845D01*
X0229307Y0028862D01*
X0229438Y0028875D01*
X0229569Y0028884D01*
X0229700Y0028889D01*
X0229832Y0028890D01*
X0229963Y0028887D01*
X0230095Y0028880D01*
X0230226Y0028869D01*
X0230356Y0028854D01*
X0230486Y0028835D01*
X0230616Y0028812D01*
X0230744Y0028786D01*
X0230872Y0028755D01*
X0230999Y0028720D01*
X0231125Y0028682D01*
X0231249Y0028640D01*
X0231373Y0028594D01*
X0231494Y0028544D01*
X0231614Y0028491D01*
X0231733Y0028434D01*
X0231850Y0028374D01*
X0231964Y0028310D01*
X0232077Y0028242D01*
X0232188Y0028171D01*
X0232297Y0028097D01*
X0232403Y0028020D01*
X0232507Y0027939D01*
X0232608Y0027856D01*
X0232707Y0027769D01*
X0232803Y0027679D01*
X0232896Y0027586D01*
X0232987Y0027491D01*
X0233074Y0027393D01*
X0233159Y0027292D01*
X0233240Y0027189D01*
X0233318Y0027083D01*
X0233393Y0026975D01*
X0233465Y0026865D01*
X0233533Y0026753D01*
X0233598Y0026639D01*
X0233659Y0026522D01*
X0233717Y0026404D01*
X0233771Y0026284D01*
X0233822Y0026163D01*
X0233869Y0026040D01*
X0233912Y0025916D01*
X0233951Y0025791D01*
X0233987Y0025664D01*
X0234018Y0025536D01*
X0234046Y0025408D01*
X0234070Y0025279D01*
X0234090Y0025149D01*
X0234106Y0025018D01*
X0234118Y0024887D01*
X0234126Y0024756D01*
X0234130Y0024625D01*
X0234130Y0024493D01*
X0234126Y0024362D01*
X0234118Y0024231D01*
X0234106Y0024100D01*
X0234090Y0023969D01*
X0234070Y0023839D01*
X0234046Y0023710D01*
X0234018Y0023582D01*
X0233987Y0023454D01*
X0233951Y0023327D01*
X0233912Y0023202D01*
X0233869Y0023078D01*
X0233822Y0022955D01*
X0233771Y0022834D01*
X0233717Y0022714D01*
X0233659Y0022596D01*
X0233598Y0022479D01*
X0233533Y0022365D01*
X0233465Y0022253D01*
X0233393Y0022143D01*
X0233318Y0022035D01*
X0233240Y0021929D01*
X0233159Y0021826D01*
X0233074Y0021725D01*
X0232987Y0021627D01*
X0232896Y0021532D01*
X0232803Y0021439D01*
X0232707Y0021349D01*
X0232608Y0021262D01*
X0232507Y0021179D01*
X0232403Y0021098D01*
X0232297Y0021021D01*
X0232188Y0020947D01*
X0232077Y0020876D01*
X0231965Y0020808D01*
X0231850Y0020744D01*
X0231733Y0020684D01*
X0231614Y0020627D01*
X0231494Y0020574D01*
X0231373Y0020524D01*
X0231249Y0020478D01*
X0231125Y0020436D01*
X0230999Y0020398D01*
X0230872Y0020363D01*
X0230744Y0020332D01*
X0230616Y0020306D01*
X0230486Y0020283D01*
X0230356Y0020264D01*
X0230226Y0020249D01*
X0230095Y0020238D01*
X0229963Y0020231D01*
X0229832Y0020228D01*
X0229700Y0020229D01*
X0229569Y0020234D01*
X0229438Y0020243D01*
X0229307Y0020256D01*
X0229177Y0020273D01*
X0229047Y0020294D01*
X0228918Y0020319D01*
X0228790Y0020347D01*
X0228662Y0020380D01*
X0228536Y0020416D01*
X0228411Y0020457D01*
X0228287Y0020501D01*
X0228164Y0020548D01*
X0228043Y0020600D01*
X0227924Y0020655D01*
X0227806Y0020714D01*
X0227691Y0020776D01*
X0227577Y0020842D01*
X0227465Y0020911D01*
X0227355Y0020983D01*
X0227248Y0021059D01*
X0227143Y0021138D01*
X0227040Y0021220D01*
X0226940Y0021305D01*
X0226843Y0021394D01*
X0226748Y0021485D01*
X0226656Y0021579D01*
X0226567Y0021676D01*
X0226481Y0021775D01*
X0226398Y0021877D01*
X0226318Y0021982D01*
X0226242Y0022088D01*
X0226169Y0022197D01*
X0226099Y0022309D01*
X0226032Y0022422D01*
X0225969Y0022537D01*
X0225909Y0022655D01*
X0225853Y0022773D01*
X0225801Y0022894D01*
X0225752Y0023016D01*
X0225707Y0023140D01*
X0225666Y0023264D01*
X0225629Y0023391D01*
X0225595Y0023518D01*
X0225565Y0023646D01*
X0225540Y0023775D01*
X0225518Y0023904D01*
X0225500Y0024034D01*
X0225486Y0024165D01*
X0225476Y0024296D01*
X0225470Y0024428D01*
X0225468Y0024559D01*
D11*
X0128437Y0047654D03*
X0128437Y0054346D03*
X0064744Y0079697D03*
X0064744Y0086390D03*
X0058740Y0113110D03*
X0058740Y0119803D03*
X0057996Y0130858D03*
X0057996Y0137551D03*
X0089201Y0120209D03*
X0089201Y0113516D03*
X0129248Y0141461D03*
X0129248Y0148154D03*
X0169437Y0125496D03*
X0169437Y0118803D03*
X0226303Y0121913D03*
X0226303Y0115220D03*
X0226000Y0102846D03*
X0226000Y0096154D03*
D12*
X0151815Y0140398D03*
X0144335Y0140398D03*
X0148075Y0148665D03*
D13*
X0163087Y0147000D03*
X0169780Y0147000D03*
X0130827Y0125366D03*
X0124134Y0125366D03*
X0162630Y0110866D03*
X0169323Y0110866D03*
X0111972Y0052894D03*
X0105280Y0052894D03*
D14*
X0179285Y0104728D03*
X0179285Y0107878D03*
X0179285Y0111028D03*
X0179285Y0114177D03*
X0179285Y0117327D03*
X0179285Y0120476D03*
X0179285Y0123626D03*
X0179285Y0126776D03*
X0213085Y0126776D03*
X0213085Y0123626D03*
X0213085Y0120476D03*
X0213085Y0117327D03*
X0213085Y0114177D03*
X0213085Y0111028D03*
X0213085Y0107878D03*
X0213085Y0104728D03*
D15*
X0207209Y0098852D03*
X0204059Y0098852D03*
X0200909Y0098852D03*
X0197760Y0098852D03*
X0194610Y0098852D03*
X0191461Y0098852D03*
X0188311Y0098852D03*
X0185161Y0098852D03*
X0185161Y0132652D03*
X0188311Y0132652D03*
X0191461Y0132652D03*
X0194610Y0132652D03*
X0197760Y0132652D03*
X0200909Y0132652D03*
X0204059Y0132652D03*
X0207209Y0132652D03*
D16*
X0089374Y0031500D03*
D17*
X0099374Y0031500D03*
X0109374Y0031500D03*
X0109374Y0041500D03*
X0099374Y0041500D03*
X0089374Y0041500D03*
D18*
X0095938Y0129710D03*
X0070338Y0129710D03*
X0070338Y0147510D03*
X0095938Y0147510D03*
D19*
X0104500Y0084500D03*
X0104500Y0074500D03*
X0121303Y0074240D03*
X0121303Y0084240D03*
D20*
X0052760Y0093335D03*
X0052760Y0099240D03*
X0052760Y0105146D03*
D21*
X0040555Y0099240D03*
D22*
X0043886Y0120394D03*
X0043886Y0135354D03*
X0052748Y0078224D03*
X0052748Y0063264D03*
D23*
X0029102Y0082728D03*
X0029102Y0112728D03*
D24*
X0108673Y0103114D03*
X0146673Y0103114D03*
D25*
X0150862Y0077146D03*
X0184366Y0077146D03*
X0184366Y0024941D03*
X0150862Y0024941D03*
D26*
X0173303Y0033327D03*
X0173303Y0037657D03*
X0173303Y0041988D03*
X0173303Y0046319D03*
X0173303Y0050650D03*
X0173303Y0054980D03*
X0173303Y0059311D03*
X0173303Y0063642D03*
D27*
X0226000Y0078047D03*
X0226000Y0083953D03*
D28*
X0229275Y0084399D02*
X0230800Y0084399D01*
X0230800Y0085397D02*
X0229275Y0085397D01*
X0229275Y0086232D02*
X0228300Y0087207D01*
X0228300Y0092288D01*
X0228673Y0092288D01*
X0229668Y0093284D01*
X0229668Y0099023D01*
X0229192Y0099500D01*
X0229668Y0099977D01*
X0229668Y0105716D01*
X0228673Y0106712D01*
X0228300Y0106712D01*
X0228300Y0108953D01*
X0226953Y0110300D01*
X0225898Y0111355D01*
X0228976Y0111355D01*
X0229972Y0112351D01*
X0229972Y0118090D01*
X0229353Y0118708D01*
X0229472Y0118827D01*
X0229669Y0119169D01*
X0229772Y0119551D01*
X0229772Y0121429D01*
X0226787Y0121429D01*
X0226787Y0122398D01*
X0225819Y0122398D01*
X0225819Y0125579D01*
X0224137Y0125579D01*
X0223756Y0125477D01*
X0223414Y0125279D01*
X0223134Y0125000D01*
X0222937Y0124658D01*
X0222835Y0124276D01*
X0222835Y0122398D01*
X0225819Y0122398D01*
X0225819Y0121429D01*
X0222835Y0121429D01*
X0222835Y0119551D01*
X0222937Y0119169D01*
X0223134Y0118827D01*
X0223253Y0118708D01*
X0222635Y0118090D01*
X0222635Y0116677D01*
X0217085Y0116677D01*
X0217085Y0117277D01*
X0213135Y0117277D01*
X0213135Y0117377D01*
X0217085Y0117377D01*
X0217085Y0118472D01*
X0217285Y0118672D01*
X0217285Y0121300D01*
X0218411Y0121300D01*
X0219700Y0122589D01*
X0226200Y0129089D01*
X0226200Y0130711D01*
X0227290Y0131802D01*
X0227881Y0133228D01*
X0227881Y0134772D01*
X0227290Y0136198D01*
X0226198Y0137290D01*
X0224772Y0137881D01*
X0224405Y0137881D01*
X0225198Y0138210D01*
X0225939Y0138950D01*
X0230800Y0134089D01*
X0230800Y0041911D01*
X0222589Y0033700D01*
X0204789Y0033700D01*
X0203698Y0034790D01*
X0202272Y0035381D01*
X0200728Y0035381D01*
X0199302Y0034790D01*
X0198210Y0033698D01*
X0197619Y0032272D01*
X0197619Y0030728D01*
X0198210Y0029302D01*
X0199302Y0028210D01*
X0200728Y0027619D01*
X0202272Y0027619D01*
X0203698Y0028210D01*
X0204789Y0029300D01*
X0224411Y0029300D01*
X0225700Y0030589D01*
X0234367Y0039256D01*
X0234367Y0028520D01*
X0233215Y0029672D01*
X0230999Y0030590D01*
X0228600Y0030590D01*
X0226383Y0029672D01*
X0224687Y0027975D01*
X0223769Y0025759D01*
X0223769Y0023359D01*
X0224687Y0021143D01*
X0226383Y0019446D01*
X0228600Y0018528D01*
X0230999Y0018528D01*
X0233215Y0019446D01*
X0234367Y0020598D01*
X0234367Y0018200D01*
X0023200Y0018200D01*
X0023200Y0153501D01*
X0121390Y0153501D01*
X0121300Y0153411D01*
X0119589Y0151700D01*
X0113289Y0151700D01*
X0112198Y0152790D01*
X0110772Y0153381D01*
X0109228Y0153381D01*
X0107802Y0152790D01*
X0106710Y0151698D01*
X0106119Y0150272D01*
X0106119Y0148728D01*
X0106639Y0147472D01*
X0105700Y0148411D01*
X0104411Y0149700D01*
X0100876Y0149700D01*
X0100516Y0150569D01*
X0098997Y0152088D01*
X0097012Y0152910D01*
X0094864Y0152910D01*
X0092879Y0152088D01*
X0091360Y0150569D01*
X0091004Y0149710D01*
X0075271Y0149710D01*
X0074916Y0150569D01*
X0073397Y0152088D01*
X0071412Y0152910D01*
X0069264Y0152910D01*
X0067279Y0152088D01*
X0065760Y0150569D01*
X0064938Y0148584D01*
X0064938Y0146436D01*
X0065760Y0144451D01*
X0067279Y0142932D01*
X0069264Y0142110D01*
X0071412Y0142110D01*
X0073397Y0142932D01*
X0074916Y0144451D01*
X0075271Y0145310D01*
X0091004Y0145310D01*
X0091360Y0144451D01*
X0092879Y0142932D01*
X0094864Y0142110D01*
X0097012Y0142110D01*
X0098997Y0142932D01*
X0100516Y0144451D01*
X0100867Y0145300D01*
X0102589Y0145300D01*
X0108089Y0139800D01*
X0111211Y0139800D01*
X0112302Y0138710D01*
X0113532Y0138200D01*
X0112411Y0138200D01*
X0110911Y0139700D01*
X0066411Y0139700D01*
X0066360Y0139751D01*
X0061665Y0139751D01*
X0061665Y0140421D01*
X0060669Y0141417D01*
X0055323Y0141417D01*
X0054328Y0140421D01*
X0054328Y0134682D01*
X0054805Y0134205D01*
X0054328Y0133728D01*
X0054328Y0127989D01*
X0055323Y0126993D01*
X0055950Y0126993D01*
X0055950Y0123551D01*
X0055293Y0122894D01*
X0050507Y0122894D01*
X0050507Y0124444D01*
X0049511Y0125440D01*
X0038260Y0125440D01*
X0037265Y0124444D01*
X0037265Y0116343D01*
X0038260Y0115347D01*
X0049511Y0115347D01*
X0050507Y0116343D01*
X0050507Y0117894D01*
X0055072Y0117894D01*
X0055072Y0116934D01*
X0055549Y0116457D01*
X0055072Y0115980D01*
X0055072Y0110993D01*
X0054528Y0110450D01*
X0054155Y0111353D01*
X0052112Y0113395D01*
X0049444Y0114500D01*
X0036036Y0114500D01*
X0035688Y0114848D01*
X0034769Y0115228D01*
X0033550Y0115228D01*
X0033397Y0115598D01*
X0031972Y0117023D01*
X0030110Y0117794D01*
X0028095Y0117794D01*
X0026233Y0117023D01*
X0024808Y0115598D01*
X0024037Y0113736D01*
X0024037Y0111721D01*
X0024808Y0109859D01*
X0026233Y0108434D01*
X0028095Y0107663D01*
X0030110Y0107663D01*
X0031972Y0108434D01*
X0033397Y0109859D01*
X0033458Y0110007D01*
X0033584Y0109881D01*
X0034503Y0109500D01*
X0048000Y0109500D01*
X0048441Y0109457D01*
X0049255Y0109119D01*
X0049879Y0108496D01*
X0050090Y0107987D01*
X0049693Y0107987D01*
X0048698Y0106992D01*
X0048698Y0103300D01*
X0049693Y0102304D01*
X0055826Y0102304D01*
X0056822Y0103300D01*
X0056822Y0105672D01*
X0060395Y0109245D01*
X0061413Y0109245D01*
X0062409Y0110241D01*
X0062409Y0115980D01*
X0061932Y0116457D01*
X0062409Y0116934D01*
X0062409Y0117500D01*
X0064247Y0117500D01*
X0063851Y0116546D01*
X0063851Y0115399D01*
X0064290Y0114340D01*
X0065100Y0113530D01*
X0066159Y0113091D01*
X0067305Y0113091D01*
X0068364Y0113530D01*
X0069175Y0114340D01*
X0069613Y0115399D01*
X0069613Y0116546D01*
X0069218Y0117500D01*
X0070964Y0117500D01*
X0075500Y0112964D01*
X0075500Y0096503D01*
X0075881Y0095584D01*
X0076584Y0094881D01*
X0098584Y0072881D01*
X0099503Y0072500D01*
X0100295Y0072500D01*
X0100558Y0071866D01*
X0101866Y0070558D01*
X0103575Y0069850D01*
X0105425Y0069850D01*
X0107134Y0070558D01*
X0108442Y0071866D01*
X0109150Y0073575D01*
X0109150Y0075425D01*
X0108442Y0077134D01*
X0107134Y0078442D01*
X0105425Y0079150D01*
X0103575Y0079150D01*
X0101866Y0078442D01*
X0100980Y0077556D01*
X0080500Y0098036D01*
X0080500Y0114497D01*
X0080119Y0115416D01*
X0074119Y0121416D01*
X0073416Y0122119D01*
X0072497Y0122500D01*
X0062409Y0122500D01*
X0062409Y0122673D01*
X0061413Y0123668D01*
X0060350Y0123668D01*
X0060350Y0126993D01*
X0060669Y0126993D01*
X0061665Y0127989D01*
X0061665Y0133728D01*
X0061188Y0134205D01*
X0061665Y0134682D01*
X0061665Y0135351D01*
X0064538Y0135351D01*
X0064589Y0135300D01*
X0109089Y0135300D01*
X0109300Y0135089D01*
X0110589Y0133800D01*
X0116711Y0133800D01*
X0117302Y0133210D01*
X0118532Y0132700D01*
X0100544Y0132700D01*
X0100516Y0132769D01*
X0098997Y0134288D01*
X0097012Y0135110D01*
X0094864Y0135110D01*
X0092879Y0134288D01*
X0091360Y0132769D01*
X0091004Y0131910D01*
X0075271Y0131910D01*
X0074916Y0132769D01*
X0073397Y0134288D01*
X0071412Y0135110D01*
X0069264Y0135110D01*
X0067279Y0134288D01*
X0065760Y0132769D01*
X0064938Y0130784D01*
X0064938Y0128636D01*
X0065760Y0126651D01*
X0067279Y0125132D01*
X0069264Y0124310D01*
X0071412Y0124310D01*
X0073397Y0125132D01*
X0074916Y0126651D01*
X0075271Y0127510D01*
X0091004Y0127510D01*
X0091360Y0126651D01*
X0092879Y0125132D01*
X0094864Y0124310D01*
X0097012Y0124310D01*
X0098997Y0125132D01*
X0100516Y0126651D01*
X0101199Y0128300D01*
X0102825Y0128300D01*
X0102802Y0128290D01*
X0101710Y0127198D01*
X0101119Y0125772D01*
X0101119Y0124230D01*
X0099297Y0122409D01*
X0092869Y0122409D01*
X0092869Y0123078D01*
X0091873Y0124074D01*
X0086528Y0124074D01*
X0085532Y0123078D01*
X0085532Y0117339D01*
X0086009Y0116862D01*
X0085532Y0116385D01*
X0085532Y0110646D01*
X0086528Y0109650D01*
X0088162Y0109650D01*
X0087710Y0109198D01*
X0087119Y0107772D01*
X0087119Y0106228D01*
X0087710Y0104802D01*
X0088802Y0103710D01*
X0090228Y0103119D01*
X0091772Y0103119D01*
X0093198Y0103710D01*
X0094290Y0104802D01*
X0094881Y0106228D01*
X0094881Y0107772D01*
X0094290Y0109198D01*
X0093500Y0109989D01*
X0093500Y0111016D01*
X0102013Y0111016D01*
X0102932Y0111396D01*
X0106473Y0114938D01*
X0106473Y0108614D01*
X0097469Y0108614D01*
X0096473Y0107618D01*
X0096473Y0098610D01*
X0097469Y0097614D01*
X0119877Y0097614D01*
X0120873Y0098610D01*
X0120873Y0107618D01*
X0119877Y0108614D01*
X0110873Y0108614D01*
X0110873Y0114262D01*
X0113230Y0116619D01*
X0114772Y0116619D01*
X0116198Y0117210D01*
X0117290Y0118302D01*
X0117692Y0119272D01*
X0127584Y0109381D01*
X0128503Y0109000D01*
X0154997Y0109000D01*
X0155916Y0109381D01*
X0156619Y0110084D01*
X0158765Y0112229D01*
X0158765Y0108193D01*
X0158988Y0107970D01*
X0158755Y0107736D01*
X0157877Y0108614D01*
X0135469Y0108614D01*
X0134473Y0107618D01*
X0134473Y0098610D01*
X0135469Y0097614D01*
X0157877Y0097614D01*
X0158873Y0098610D01*
X0158873Y0101632D01*
X0161815Y0104574D01*
X0162800Y0103589D01*
X0164089Y0102300D01*
X0175709Y0102300D01*
X0176081Y0101928D01*
X0182361Y0101928D01*
X0182361Y0095700D01*
X0176411Y0095700D01*
X0172911Y0099200D01*
X0170289Y0099200D01*
X0169198Y0100290D01*
X0167772Y0100881D01*
X0166228Y0100881D01*
X0164802Y0100290D01*
X0163710Y0099198D01*
X0163119Y0097772D01*
X0163119Y0096228D01*
X0163710Y0094802D01*
X0164384Y0094128D01*
X0163772Y0094381D01*
X0162230Y0094381D01*
X0160411Y0096200D01*
X0098089Y0096200D01*
X0096770Y0094881D01*
X0095228Y0094881D01*
X0093802Y0094290D01*
X0092710Y0093198D01*
X0092119Y0091772D01*
X0092119Y0090228D01*
X0092710Y0088802D01*
X0093802Y0087710D01*
X0095228Y0087119D01*
X0096772Y0087119D01*
X0098198Y0087710D01*
X0099290Y0088802D01*
X0099881Y0090228D01*
X0099881Y0091770D01*
X0099911Y0091800D01*
X0158589Y0091800D01*
X0159119Y0091270D01*
X0159119Y0089728D01*
X0159710Y0088302D01*
X0160802Y0087210D01*
X0162228Y0086619D01*
X0163772Y0086619D01*
X0165198Y0087210D01*
X0166290Y0088302D01*
X0166881Y0089728D01*
X0166881Y0091272D01*
X0166290Y0092698D01*
X0165616Y0093372D01*
X0166228Y0093119D01*
X0167772Y0093119D01*
X0169198Y0093710D01*
X0170289Y0094800D01*
X0171089Y0094800D01*
X0174589Y0091300D01*
X0188911Y0091300D01*
X0189300Y0091689D01*
X0189300Y0084911D01*
X0189089Y0084700D01*
X0141411Y0084700D01*
X0141381Y0084730D01*
X0141381Y0086272D01*
X0140790Y0087698D01*
X0139698Y0088790D01*
X0138272Y0089381D01*
X0136728Y0089381D01*
X0135302Y0088790D01*
X0134210Y0087698D01*
X0133619Y0086272D01*
X0133619Y0084728D01*
X0134210Y0083302D01*
X0135302Y0082210D01*
X0136728Y0081619D01*
X0138270Y0081619D01*
X0139589Y0080300D01*
X0145225Y0080300D01*
X0145225Y0073587D01*
X0146221Y0072591D01*
X0155503Y0072591D01*
X0156499Y0073587D01*
X0156499Y0080300D01*
X0178729Y0080300D01*
X0178729Y0073587D01*
X0179116Y0073200D01*
X0166089Y0073200D01*
X0161589Y0068700D01*
X0105589Y0068700D01*
X0104300Y0067411D01*
X0098089Y0061200D01*
X0080589Y0061200D01*
X0079300Y0059911D01*
X0073589Y0054200D01*
X0070189Y0054200D01*
X0070290Y0054302D01*
X0070881Y0055728D01*
X0070881Y0057272D01*
X0070290Y0058698D01*
X0069198Y0059790D01*
X0067772Y0060381D01*
X0066228Y0060381D01*
X0064802Y0059790D01*
X0063710Y0058698D01*
X0063119Y0057272D01*
X0063119Y0055728D01*
X0063710Y0054302D01*
X0064800Y0053211D01*
X0064800Y0051589D01*
X0065300Y0051089D01*
X0066589Y0049800D01*
X0075411Y0049800D01*
X0076700Y0051089D01*
X0082411Y0056800D01*
X0099911Y0056800D01*
X0107411Y0064300D01*
X0163411Y0064300D01*
X0164700Y0065589D01*
X0167911Y0068800D01*
X0189711Y0068800D01*
X0190802Y0067710D01*
X0192228Y0067119D01*
X0193772Y0067119D01*
X0194174Y0067286D01*
X0188400Y0061511D01*
X0177956Y0061511D01*
X0177956Y0065921D01*
X0176960Y0066917D01*
X0169646Y0066917D01*
X0168650Y0065921D01*
X0168650Y0057200D01*
X0167411Y0057200D01*
X0164911Y0059700D01*
X0146289Y0059700D01*
X0145198Y0060790D01*
X0143772Y0061381D01*
X0142228Y0061381D01*
X0140802Y0060790D01*
X0139710Y0059698D01*
X0139119Y0058272D01*
X0139119Y0056728D01*
X0139710Y0055302D01*
X0140802Y0054210D01*
X0142228Y0053619D01*
X0143772Y0053619D01*
X0145198Y0054210D01*
X0146289Y0055300D01*
X0163089Y0055300D01*
X0164300Y0054089D01*
X0164889Y0053500D01*
X0144003Y0053500D01*
X0143084Y0053119D01*
X0140118Y0050154D01*
X0132105Y0050154D01*
X0132105Y0050523D01*
X0131487Y0051141D01*
X0131606Y0051260D01*
X0131803Y0051602D01*
X0131905Y0051984D01*
X0131905Y0053862D01*
X0128921Y0053862D01*
X0128921Y0054831D01*
X0127953Y0054831D01*
X0127953Y0058012D01*
X0126271Y0058012D01*
X0125890Y0057910D01*
X0125547Y0057712D01*
X0125268Y0057433D01*
X0125071Y0057091D01*
X0124969Y0056709D01*
X0124969Y0054831D01*
X0127953Y0054831D01*
X0127953Y0053862D01*
X0124969Y0053862D01*
X0124969Y0051984D01*
X0125071Y0051602D01*
X0125268Y0051260D01*
X0125387Y0051141D01*
X0124769Y0050523D01*
X0124769Y0044784D01*
X0125764Y0043788D01*
X0131110Y0043788D01*
X0132105Y0044784D01*
X0132105Y0045154D01*
X0137464Y0045154D01*
X0139000Y0043618D01*
X0139000Y0032536D01*
X0130464Y0024000D01*
X0121611Y0024000D01*
X0124230Y0026619D01*
X0125772Y0026619D01*
X0127198Y0027210D01*
X0128290Y0028302D01*
X0128881Y0029728D01*
X0128881Y0031272D01*
X0128290Y0032698D01*
X0127198Y0033790D01*
X0125772Y0034381D01*
X0124228Y0034381D01*
X0122802Y0033790D01*
X0121710Y0032698D01*
X0121119Y0031272D01*
X0121119Y0029730D01*
X0119089Y0027700D01*
X0113211Y0027700D01*
X0114774Y0029263D01*
X0114774Y0032163D01*
X0122700Y0040089D01*
X0122700Y0049411D01*
X0117018Y0055094D01*
X0115838Y0055094D01*
X0115838Y0055566D01*
X0114842Y0056562D01*
X0109103Y0056562D01*
X0108626Y0056085D01*
X0108149Y0056562D01*
X0102410Y0056562D01*
X0101414Y0055566D01*
X0101414Y0054700D01*
X0096589Y0054700D01*
X0089554Y0047665D01*
X0088745Y0048000D01*
X0082503Y0048000D01*
X0081584Y0047619D01*
X0080881Y0046916D01*
X0080464Y0046500D01*
X0060536Y0046500D01*
X0056762Y0050273D01*
X0056790Y0050302D01*
X0057381Y0051728D01*
X0057381Y0053272D01*
X0056790Y0054698D01*
X0055698Y0055790D01*
X0054272Y0056381D01*
X0052728Y0056381D01*
X0051302Y0055790D01*
X0050210Y0054698D01*
X0049619Y0053272D01*
X0049619Y0051728D01*
X0050210Y0050302D01*
X0051000Y0049511D01*
X0051000Y0049503D01*
X0051381Y0048584D01*
X0057381Y0042584D01*
X0058084Y0041881D01*
X0059003Y0041500D01*
X0078964Y0041500D01*
X0079000Y0041464D01*
X0079000Y0026003D01*
X0079381Y0025084D01*
X0085084Y0019381D01*
X0086003Y0019000D01*
X0131997Y0019000D01*
X0132916Y0019381D01*
X0133619Y0020084D01*
X0142916Y0029381D01*
X0143619Y0030084D01*
X0144000Y0031003D01*
X0144000Y0042308D01*
X0144210Y0041802D01*
X0145302Y0040710D01*
X0146728Y0040119D01*
X0148272Y0040119D01*
X0149698Y0040710D01*
X0150789Y0041800D01*
X0164911Y0041800D01*
X0166200Y0043089D01*
X0167411Y0044300D01*
X0168650Y0044300D01*
X0168650Y0044040D01*
X0168867Y0043823D01*
X0168850Y0043760D01*
X0168850Y0042276D01*
X0173016Y0042276D01*
X0173016Y0041701D01*
X0168850Y0041701D01*
X0168850Y0040216D01*
X0168867Y0040153D01*
X0168650Y0039936D01*
X0168650Y0039700D01*
X0158789Y0039700D01*
X0157698Y0040790D01*
X0156272Y0041381D01*
X0154728Y0041381D01*
X0153302Y0040790D01*
X0152210Y0039698D01*
X0151619Y0038272D01*
X0151619Y0036728D01*
X0152210Y0035302D01*
X0153302Y0034210D01*
X0154728Y0033619D01*
X0156272Y0033619D01*
X0157698Y0034210D01*
X0158789Y0035300D01*
X0168650Y0035300D01*
X0168650Y0031048D01*
X0169646Y0030052D01*
X0176960Y0030052D01*
X0177956Y0031048D01*
X0177956Y0035457D01*
X0196569Y0035457D01*
X0210911Y0049800D01*
X0212200Y0051089D01*
X0212200Y0090911D01*
X0210911Y0092200D01*
X0209409Y0093703D01*
X0209409Y0095048D01*
X0210009Y0095648D01*
X0210009Y0101928D01*
X0210885Y0101928D01*
X0210885Y0101504D01*
X0216300Y0096089D01*
X0216300Y0051789D01*
X0215210Y0050698D01*
X0214619Y0049272D01*
X0214619Y0047728D01*
X0215210Y0046302D01*
X0216302Y0045210D01*
X0217728Y0044619D01*
X0219272Y0044619D01*
X0220698Y0045210D01*
X0221790Y0046302D01*
X0222381Y0047728D01*
X0222381Y0049272D01*
X0221790Y0050698D01*
X0220700Y0051789D01*
X0220700Y0097911D01*
X0219411Y0099200D01*
X0216486Y0102125D01*
X0217285Y0102924D01*
X0217285Y0108728D01*
X0222020Y0108728D01*
X0223700Y0107047D01*
X0223700Y0106712D01*
X0223327Y0106712D01*
X0222331Y0105716D01*
X0222331Y0099977D01*
X0222808Y0099500D01*
X0222331Y0099023D01*
X0222331Y0093284D01*
X0223327Y0092288D01*
X0223700Y0092288D01*
X0223700Y0087207D01*
X0222725Y0086232D01*
X0222725Y0081674D01*
X0223550Y0080849D01*
X0223504Y0080822D01*
X0223225Y0080543D01*
X0223027Y0080201D01*
X0222925Y0079820D01*
X0222925Y0078335D01*
X0225713Y0078335D01*
X0225713Y0077760D01*
X0226287Y0077760D01*
X0226287Y0074972D01*
X0227772Y0074972D01*
X0228154Y0075075D01*
X0228496Y0075272D01*
X0228775Y0075551D01*
X0228973Y0075893D01*
X0229075Y0076275D01*
X0229075Y0077760D01*
X0226287Y0077760D01*
X0226287Y0078335D01*
X0229075Y0078335D01*
X0229075Y0079820D01*
X0228973Y0080201D01*
X0228775Y0080543D01*
X0228496Y0080822D01*
X0228450Y0080849D01*
X0229275Y0081674D01*
X0229275Y0086232D01*
X0229111Y0086396D02*
X0230800Y0086396D01*
X0230800Y0087394D02*
X0228300Y0087394D01*
X0228300Y0088393D02*
X0230800Y0088393D01*
X0230800Y0089391D02*
X0228300Y0089391D01*
X0228300Y0090390D02*
X0230800Y0090390D01*
X0230800Y0091388D02*
X0228300Y0091388D01*
X0228771Y0092387D02*
X0230800Y0092387D01*
X0230800Y0093385D02*
X0229668Y0093385D01*
X0229668Y0094384D02*
X0230800Y0094384D01*
X0230800Y0095382D02*
X0229668Y0095382D01*
X0229668Y0096381D02*
X0230800Y0096381D01*
X0230800Y0097379D02*
X0229668Y0097379D01*
X0229668Y0098378D02*
X0230800Y0098378D01*
X0230800Y0099376D02*
X0229315Y0099376D01*
X0229668Y0100375D02*
X0230800Y0100375D01*
X0230800Y0101373D02*
X0229668Y0101373D01*
X0229668Y0102372D02*
X0230800Y0102372D01*
X0230800Y0103370D02*
X0229668Y0103370D01*
X0229668Y0104369D02*
X0230800Y0104369D01*
X0230800Y0105368D02*
X0229668Y0105368D01*
X0229018Y0106366D02*
X0230800Y0106366D01*
X0230800Y0107365D02*
X0228300Y0107365D01*
X0228300Y0108363D02*
X0230800Y0108363D01*
X0230800Y0109362D02*
X0227891Y0109362D01*
X0226893Y0110360D02*
X0230800Y0110360D01*
X0230800Y0111359D02*
X0228979Y0111359D01*
X0229972Y0112357D02*
X0230800Y0112357D01*
X0230800Y0113356D02*
X0229972Y0113356D01*
X0229972Y0114354D02*
X0230800Y0114354D01*
X0230800Y0115353D02*
X0229972Y0115353D01*
X0229972Y0116351D02*
X0230800Y0116351D01*
X0230800Y0117350D02*
X0229972Y0117350D01*
X0229713Y0118348D02*
X0230800Y0118348D01*
X0230800Y0119347D02*
X0229717Y0119347D01*
X0229772Y0120345D02*
X0230800Y0120345D01*
X0230800Y0121344D02*
X0229772Y0121344D01*
X0229772Y0122398D02*
X0226787Y0122398D01*
X0226787Y0125579D01*
X0228469Y0125579D01*
X0228851Y0125477D01*
X0229193Y0125279D01*
X0229472Y0125000D01*
X0229669Y0124658D01*
X0229772Y0124276D01*
X0229772Y0122398D01*
X0229772Y0123341D02*
X0230800Y0123341D01*
X0230800Y0124339D02*
X0229755Y0124339D01*
X0229091Y0125338D02*
X0230800Y0125338D01*
X0230800Y0126336D02*
X0223448Y0126336D01*
X0223515Y0125338D02*
X0222449Y0125338D01*
X0222852Y0124339D02*
X0221450Y0124339D01*
X0220452Y0123341D02*
X0222835Y0123341D01*
X0222835Y0121344D02*
X0218455Y0121344D01*
X0219453Y0122342D02*
X0225819Y0122342D01*
X0226787Y0122342D02*
X0230800Y0122342D01*
X0226787Y0123341D02*
X0225819Y0123341D01*
X0225819Y0124339D02*
X0226787Y0124339D01*
X0226787Y0125338D02*
X0225819Y0125338D01*
X0224446Y0127335D02*
X0230800Y0127335D01*
X0230800Y0128333D02*
X0225445Y0128333D01*
X0226200Y0129332D02*
X0230800Y0129332D01*
X0230800Y0130330D02*
X0226200Y0130330D01*
X0226818Y0131329D02*
X0230800Y0131329D01*
X0230800Y0132327D02*
X0227508Y0132327D01*
X0227881Y0133326D02*
X0230800Y0133326D01*
X0230564Y0134324D02*
X0227881Y0134324D01*
X0227653Y0135323D02*
X0229566Y0135323D01*
X0228567Y0136321D02*
X0227167Y0136321D01*
X0227569Y0137320D02*
X0226127Y0137320D01*
X0226570Y0138318D02*
X0225307Y0138318D01*
X0226500Y0141500D02*
X0223000Y0141500D01*
X0226500Y0141500D02*
X0233000Y0135000D01*
X0233000Y0041000D01*
X0223500Y0031500D01*
X0201500Y0031500D01*
X0197619Y0031478D02*
X0177956Y0031478D01*
X0177956Y0032476D02*
X0197703Y0032476D01*
X0198117Y0033475D02*
X0177956Y0033475D01*
X0177956Y0034473D02*
X0198984Y0034473D01*
X0197581Y0036470D02*
X0225359Y0036470D01*
X0224360Y0035472D02*
X0196583Y0035472D01*
X0195657Y0037657D02*
X0173303Y0037657D01*
X0173146Y0037500D01*
X0155500Y0037500D01*
X0151619Y0037469D02*
X0144000Y0037469D01*
X0144000Y0038467D02*
X0151700Y0038467D01*
X0152113Y0039466D02*
X0144000Y0039466D01*
X0144000Y0040464D02*
X0145894Y0040464D01*
X0144548Y0041463D02*
X0144000Y0041463D01*
X0147500Y0044000D02*
X0164000Y0044000D01*
X0166500Y0046500D01*
X0173122Y0046500D01*
X0173303Y0046319D01*
X0185819Y0046319D01*
X0188000Y0048500D01*
X0193000Y0048500D01*
X0196881Y0048452D02*
X0203341Y0048452D01*
X0202343Y0047454D02*
X0196768Y0047454D01*
X0196881Y0047728D02*
X0196881Y0049272D01*
X0196290Y0050698D01*
X0195198Y0051790D01*
X0193772Y0052381D01*
X0192228Y0052381D01*
X0190802Y0051790D01*
X0189711Y0050700D01*
X0187089Y0050700D01*
X0185800Y0049411D01*
X0184908Y0048519D01*
X0177956Y0048519D01*
X0177956Y0052780D01*
X0194392Y0052780D01*
X0195680Y0054069D01*
X0207800Y0066189D01*
X0207800Y0052911D01*
X0194746Y0039857D01*
X0177956Y0039857D01*
X0177956Y0039936D01*
X0177739Y0040153D01*
X0177756Y0040216D01*
X0177756Y0041701D01*
X0173591Y0041701D01*
X0173591Y0042276D01*
X0177756Y0042276D01*
X0177756Y0043760D01*
X0177739Y0043823D01*
X0177956Y0044040D01*
X0177956Y0044119D01*
X0186730Y0044119D01*
X0188911Y0046300D01*
X0189711Y0046300D01*
X0190802Y0045210D01*
X0192228Y0044619D01*
X0193772Y0044619D01*
X0195198Y0045210D01*
X0196290Y0046302D01*
X0196881Y0047728D01*
X0196354Y0046455D02*
X0201344Y0046455D01*
X0200346Y0045457D02*
X0195446Y0045457D01*
X0198349Y0043460D02*
X0177756Y0043460D01*
X0177756Y0042461D02*
X0197350Y0042461D01*
X0196352Y0041463D02*
X0177756Y0041463D01*
X0177756Y0040464D02*
X0195353Y0040464D01*
X0199579Y0038467D02*
X0227356Y0038467D01*
X0226357Y0037469D02*
X0198580Y0037469D01*
X0200577Y0039466D02*
X0228354Y0039466D01*
X0229353Y0040464D02*
X0201576Y0040464D01*
X0202574Y0041463D02*
X0230352Y0041463D01*
X0230800Y0042461D02*
X0203573Y0042461D01*
X0204571Y0043460D02*
X0230800Y0043460D01*
X0230800Y0044458D02*
X0205570Y0044458D01*
X0206568Y0045457D02*
X0216054Y0045457D01*
X0215146Y0046455D02*
X0207567Y0046455D01*
X0208565Y0047454D02*
X0214732Y0047454D01*
X0214619Y0048452D02*
X0209564Y0048452D01*
X0210562Y0049451D02*
X0214693Y0049451D01*
X0215107Y0050449D02*
X0211561Y0050449D01*
X0212200Y0051448D02*
X0215959Y0051448D01*
X0216300Y0052446D02*
X0212200Y0052446D01*
X0212200Y0053445D02*
X0216300Y0053445D01*
X0216300Y0054443D02*
X0212200Y0054443D01*
X0212200Y0055442D02*
X0216300Y0055442D01*
X0216300Y0056440D02*
X0212200Y0056440D01*
X0212200Y0057439D02*
X0216300Y0057439D01*
X0216300Y0058437D02*
X0212200Y0058437D01*
X0212200Y0059436D02*
X0216300Y0059436D01*
X0216300Y0060434D02*
X0212200Y0060434D01*
X0212200Y0061433D02*
X0216300Y0061433D01*
X0216300Y0062432D02*
X0212200Y0062432D01*
X0212200Y0063430D02*
X0216300Y0063430D01*
X0216300Y0064429D02*
X0212200Y0064429D01*
X0212200Y0065427D02*
X0216300Y0065427D01*
X0216300Y0066426D02*
X0212200Y0066426D01*
X0212200Y0067424D02*
X0216300Y0067424D01*
X0216300Y0068423D02*
X0212200Y0068423D01*
X0212200Y0069421D02*
X0216300Y0069421D01*
X0216300Y0070420D02*
X0212200Y0070420D01*
X0212200Y0071418D02*
X0216300Y0071418D01*
X0216300Y0072417D02*
X0212200Y0072417D01*
X0212200Y0073415D02*
X0216300Y0073415D01*
X0216300Y0074414D02*
X0212200Y0074414D01*
X0212200Y0075412D02*
X0216300Y0075412D01*
X0216300Y0076411D02*
X0212200Y0076411D01*
X0212200Y0077409D02*
X0216300Y0077409D01*
X0216300Y0078408D02*
X0212200Y0078408D01*
X0212200Y0079406D02*
X0216300Y0079406D01*
X0216300Y0080405D02*
X0212200Y0080405D01*
X0212200Y0081403D02*
X0216300Y0081403D01*
X0216300Y0082402D02*
X0212200Y0082402D01*
X0212200Y0083400D02*
X0216300Y0083400D01*
X0216300Y0084399D02*
X0212200Y0084399D01*
X0212200Y0085397D02*
X0216300Y0085397D01*
X0216300Y0086396D02*
X0212200Y0086396D01*
X0212200Y0087394D02*
X0216300Y0087394D01*
X0216300Y0088393D02*
X0212200Y0088393D01*
X0212200Y0089391D02*
X0216300Y0089391D01*
X0216300Y0090390D02*
X0212200Y0090390D01*
X0211723Y0091388D02*
X0216300Y0091388D01*
X0216300Y0092387D02*
X0210724Y0092387D01*
X0209726Y0093385D02*
X0216300Y0093385D01*
X0216300Y0094384D02*
X0209409Y0094384D01*
X0209743Y0095382D02*
X0216300Y0095382D01*
X0216008Y0096381D02*
X0210009Y0096381D01*
X0210009Y0097379D02*
X0215009Y0097379D01*
X0214011Y0098378D02*
X0210009Y0098378D01*
X0210009Y0099376D02*
X0213012Y0099376D01*
X0212014Y0100375D02*
X0210009Y0100375D01*
X0210009Y0101373D02*
X0211015Y0101373D01*
X0213085Y0102415D02*
X0218500Y0097000D01*
X0218500Y0048500D01*
X0222381Y0048452D02*
X0230800Y0048452D01*
X0230800Y0047454D02*
X0222268Y0047454D01*
X0221854Y0046455D02*
X0230800Y0046455D01*
X0230800Y0045457D02*
X0220946Y0045457D01*
X0222307Y0049451D02*
X0230800Y0049451D01*
X0230800Y0050449D02*
X0221893Y0050449D01*
X0221041Y0051448D02*
X0230800Y0051448D01*
X0230800Y0052446D02*
X0220700Y0052446D01*
X0220700Y0053445D02*
X0230800Y0053445D01*
X0230800Y0054443D02*
X0220700Y0054443D01*
X0220700Y0055442D02*
X0230800Y0055442D01*
X0230800Y0056440D02*
X0220700Y0056440D01*
X0220700Y0057439D02*
X0230800Y0057439D01*
X0230800Y0058437D02*
X0220700Y0058437D01*
X0220700Y0059436D02*
X0230800Y0059436D01*
X0230800Y0060434D02*
X0220700Y0060434D01*
X0220700Y0061433D02*
X0230800Y0061433D01*
X0230800Y0062432D02*
X0220700Y0062432D01*
X0220700Y0063430D02*
X0230800Y0063430D01*
X0230800Y0064429D02*
X0220700Y0064429D01*
X0220700Y0065427D02*
X0230800Y0065427D01*
X0230800Y0066426D02*
X0220700Y0066426D01*
X0220700Y0067424D02*
X0230800Y0067424D01*
X0230800Y0068423D02*
X0220700Y0068423D01*
X0220700Y0069421D02*
X0230800Y0069421D01*
X0230800Y0070420D02*
X0220700Y0070420D01*
X0220700Y0071418D02*
X0230800Y0071418D01*
X0230800Y0072417D02*
X0220700Y0072417D01*
X0220700Y0073415D02*
X0230800Y0073415D01*
X0230800Y0074414D02*
X0220700Y0074414D01*
X0220700Y0075412D02*
X0223364Y0075412D01*
X0223225Y0075551D02*
X0223504Y0075272D01*
X0223846Y0075075D01*
X0224228Y0074972D01*
X0225713Y0074972D01*
X0225713Y0077760D01*
X0222925Y0077760D01*
X0222925Y0076275D01*
X0223027Y0075893D01*
X0223225Y0075551D01*
X0222925Y0076411D02*
X0220700Y0076411D01*
X0220700Y0077409D02*
X0222925Y0077409D01*
X0222925Y0078408D02*
X0220700Y0078408D01*
X0220700Y0079406D02*
X0222925Y0079406D01*
X0223145Y0080405D02*
X0220700Y0080405D01*
X0220700Y0081403D02*
X0222996Y0081403D01*
X0222725Y0082402D02*
X0220700Y0082402D01*
X0220700Y0083400D02*
X0222725Y0083400D01*
X0222725Y0084399D02*
X0220700Y0084399D01*
X0220700Y0085397D02*
X0222725Y0085397D01*
X0222889Y0086396D02*
X0220700Y0086396D01*
X0220700Y0087394D02*
X0223700Y0087394D01*
X0223700Y0088393D02*
X0220700Y0088393D01*
X0220700Y0089391D02*
X0223700Y0089391D01*
X0223700Y0090390D02*
X0220700Y0090390D01*
X0220700Y0091388D02*
X0223700Y0091388D01*
X0223229Y0092387D02*
X0220700Y0092387D01*
X0220700Y0093385D02*
X0222331Y0093385D01*
X0222331Y0094384D02*
X0220700Y0094384D01*
X0220700Y0095382D02*
X0222331Y0095382D01*
X0222331Y0096381D02*
X0220700Y0096381D01*
X0220700Y0097379D02*
X0222331Y0097379D01*
X0222331Y0098378D02*
X0220233Y0098378D01*
X0219235Y0099376D02*
X0222685Y0099376D01*
X0222331Y0100375D02*
X0218236Y0100375D01*
X0217238Y0101373D02*
X0222331Y0101373D01*
X0222331Y0102372D02*
X0216733Y0102372D01*
X0217285Y0103370D02*
X0222331Y0103370D01*
X0222331Y0104369D02*
X0217285Y0104369D01*
X0217285Y0105368D02*
X0222331Y0105368D01*
X0222982Y0106366D02*
X0217285Y0106366D01*
X0217285Y0107365D02*
X0223383Y0107365D01*
X0222384Y0108363D02*
X0217285Y0108363D01*
X0213085Y0104728D02*
X0213085Y0102415D01*
X0207209Y0098852D02*
X0207209Y0092791D01*
X0210000Y0090000D01*
X0210000Y0052000D01*
X0195657Y0037657D01*
X0204015Y0034473D02*
X0223362Y0034473D01*
X0227587Y0032476D02*
X0234367Y0032476D01*
X0234367Y0031478D02*
X0226589Y0031478D01*
X0225590Y0030479D02*
X0228333Y0030479D01*
X0226192Y0029481D02*
X0224592Y0029481D01*
X0225194Y0028482D02*
X0203971Y0028482D01*
X0199029Y0028482D02*
X0190003Y0028482D01*
X0190003Y0028499D02*
X0189007Y0029495D01*
X0179725Y0029495D01*
X0178729Y0028499D01*
X0178729Y0021382D01*
X0179725Y0020387D01*
X0189007Y0020387D01*
X0190003Y0021382D01*
X0190003Y0028499D01*
X0190003Y0027484D02*
X0224483Y0027484D01*
X0224069Y0026485D02*
X0190003Y0026485D01*
X0190003Y0025487D02*
X0223769Y0025487D01*
X0223769Y0024488D02*
X0190003Y0024488D01*
X0190003Y0023490D02*
X0223769Y0023490D01*
X0224128Y0022491D02*
X0190003Y0022491D01*
X0190003Y0021493D02*
X0224542Y0021493D01*
X0225336Y0020494D02*
X0189115Y0020494D01*
X0179618Y0020494D02*
X0134030Y0020494D01*
X0135028Y0021493D02*
X0145536Y0021493D01*
X0145527Y0021508D02*
X0145725Y0021166D01*
X0146004Y0020886D01*
X0146346Y0020689D01*
X0146728Y0020587D01*
X0150362Y0020587D01*
X0150362Y0024441D01*
X0145425Y0024441D01*
X0145425Y0021889D01*
X0145527Y0021508D01*
X0145425Y0022491D02*
X0136027Y0022491D01*
X0137025Y0023490D02*
X0145425Y0023490D01*
X0145425Y0025441D02*
X0150362Y0025441D01*
X0150362Y0024441D01*
X0151362Y0024441D01*
X0151362Y0020587D01*
X0154997Y0020587D01*
X0155378Y0020689D01*
X0155720Y0020886D01*
X0155999Y0021166D01*
X0156197Y0021508D01*
X0156299Y0021889D01*
X0156299Y0024441D01*
X0151362Y0024441D01*
X0151362Y0025441D01*
X0150362Y0025441D01*
X0150362Y0029295D01*
X0146728Y0029295D01*
X0146346Y0029193D01*
X0146004Y0028996D01*
X0145725Y0028716D01*
X0145527Y0028374D01*
X0145425Y0027993D01*
X0145425Y0025441D01*
X0145425Y0025487D02*
X0139022Y0025487D01*
X0140021Y0026485D02*
X0145425Y0026485D01*
X0145425Y0027484D02*
X0141019Y0027484D01*
X0142018Y0028482D02*
X0145590Y0028482D01*
X0143783Y0030479D02*
X0169219Y0030479D01*
X0168650Y0031478D02*
X0144000Y0031478D01*
X0144000Y0032476D02*
X0168650Y0032476D01*
X0168650Y0033475D02*
X0144000Y0033475D01*
X0144000Y0034473D02*
X0153038Y0034473D01*
X0152139Y0035472D02*
X0144000Y0035472D01*
X0144000Y0036470D02*
X0151726Y0036470D01*
X0157962Y0034473D02*
X0168650Y0034473D01*
X0168850Y0040464D02*
X0158024Y0040464D01*
X0152976Y0040464D02*
X0149106Y0040464D01*
X0150451Y0041463D02*
X0168850Y0041463D01*
X0168850Y0042461D02*
X0165573Y0042461D01*
X0166200Y0043089D02*
X0166200Y0043089D01*
X0166571Y0043460D02*
X0168850Y0043460D01*
X0177956Y0049451D02*
X0185840Y0049451D01*
X0186838Y0050449D02*
X0177956Y0050449D01*
X0177956Y0051448D02*
X0190459Y0051448D01*
X0193480Y0054980D02*
X0173303Y0054980D01*
X0173283Y0055000D01*
X0166500Y0055000D01*
X0164000Y0057500D01*
X0143000Y0057500D01*
X0139119Y0057439D02*
X0131600Y0057439D01*
X0131606Y0057433D02*
X0131327Y0057712D01*
X0130984Y0057910D01*
X0130603Y0058012D01*
X0128921Y0058012D01*
X0128921Y0054831D01*
X0131905Y0054831D01*
X0131905Y0056709D01*
X0131803Y0057091D01*
X0131606Y0057433D01*
X0131905Y0056440D02*
X0139238Y0056440D01*
X0139652Y0055442D02*
X0131905Y0055442D01*
X0131905Y0053445D02*
X0143870Y0053445D01*
X0142411Y0052446D02*
X0131905Y0052446D01*
X0131714Y0051448D02*
X0141412Y0051448D01*
X0140414Y0050449D02*
X0132105Y0050449D01*
X0128921Y0054443D02*
X0140568Y0054443D01*
X0139187Y0058437D02*
X0101549Y0058437D01*
X0100550Y0057439D02*
X0125274Y0057439D01*
X0124969Y0056440D02*
X0114964Y0056440D01*
X0115838Y0055442D02*
X0124969Y0055442D01*
X0124969Y0053445D02*
X0118666Y0053445D01*
X0117668Y0054443D02*
X0127953Y0054443D01*
X0128437Y0054346D02*
X0128500Y0054409D01*
X0128921Y0055442D02*
X0127953Y0055442D01*
X0127953Y0056440D02*
X0128921Y0056440D01*
X0128921Y0057439D02*
X0127953Y0057439D01*
X0124969Y0052446D02*
X0119665Y0052446D01*
X0120663Y0051448D02*
X0125160Y0051448D01*
X0124769Y0050449D02*
X0121662Y0050449D01*
X0122660Y0049451D02*
X0124769Y0049451D01*
X0124769Y0048452D02*
X0122700Y0048452D01*
X0122700Y0047454D02*
X0124769Y0047454D01*
X0124769Y0046455D02*
X0122700Y0046455D01*
X0122700Y0045457D02*
X0124769Y0045457D01*
X0125094Y0044458D02*
X0122700Y0044458D01*
X0122700Y0043460D02*
X0139000Y0043460D01*
X0139000Y0042461D02*
X0122700Y0042461D01*
X0122700Y0041463D02*
X0139000Y0041463D01*
X0139000Y0040464D02*
X0122700Y0040464D01*
X0122077Y0039466D02*
X0139000Y0039466D01*
X0139000Y0038467D02*
X0121079Y0038467D01*
X0120080Y0037469D02*
X0139000Y0037469D01*
X0139000Y0036470D02*
X0119081Y0036470D01*
X0118083Y0035472D02*
X0139000Y0035472D01*
X0139000Y0034473D02*
X0117084Y0034473D01*
X0116086Y0033475D02*
X0122486Y0033475D01*
X0121618Y0032476D02*
X0115087Y0032476D01*
X0114774Y0031478D02*
X0121204Y0031478D01*
X0121119Y0030479D02*
X0114774Y0030479D01*
X0114774Y0029481D02*
X0120869Y0029481D01*
X0119871Y0028482D02*
X0113993Y0028482D01*
X0111500Y0032000D02*
X0109874Y0032000D01*
X0109374Y0031500D01*
X0111500Y0032000D02*
X0120500Y0041000D01*
X0120500Y0048500D01*
X0116106Y0052894D01*
X0111972Y0052894D01*
X0108626Y0049702D02*
X0109103Y0049225D01*
X0114842Y0049225D01*
X0115753Y0050136D01*
X0118300Y0047589D01*
X0118300Y0041911D01*
X0112450Y0036061D01*
X0111869Y0036641D01*
X0114574Y0039346D01*
X0114574Y0041000D01*
X0109874Y0041000D01*
X0109874Y0042000D01*
X0108874Y0042000D01*
X0108874Y0046700D01*
X0107220Y0046700D01*
X0104515Y0043995D01*
X0101611Y0046900D01*
X0097137Y0046900D01*
X0094374Y0044137D01*
X0093311Y0045200D01*
X0098411Y0050300D01*
X0101414Y0050300D01*
X0101414Y0050221D01*
X0102410Y0049225D01*
X0108149Y0049225D01*
X0108626Y0049702D01*
X0108375Y0049451D02*
X0108877Y0049451D01*
X0109874Y0046700D02*
X0109874Y0042000D01*
X0114574Y0042000D01*
X0114574Y0043654D01*
X0111528Y0046700D01*
X0109874Y0046700D01*
X0109874Y0046455D02*
X0108874Y0046455D01*
X0108874Y0045457D02*
X0109874Y0045457D01*
X0109874Y0044458D02*
X0108874Y0044458D01*
X0108874Y0043460D02*
X0109874Y0043460D01*
X0109874Y0042461D02*
X0108874Y0042461D01*
X0109874Y0041463D02*
X0117852Y0041463D01*
X0118300Y0042461D02*
X0114574Y0042461D01*
X0114574Y0043460D02*
X0118300Y0043460D01*
X0118300Y0044458D02*
X0113770Y0044458D01*
X0112771Y0045457D02*
X0118300Y0045457D01*
X0118300Y0046455D02*
X0111773Y0046455D01*
X0115068Y0049451D02*
X0116438Y0049451D01*
X0117436Y0048452D02*
X0096564Y0048452D01*
X0097562Y0049451D02*
X0102184Y0049451D01*
X0102055Y0046455D02*
X0106975Y0046455D01*
X0105977Y0045457D02*
X0103054Y0045457D01*
X0104052Y0044458D02*
X0104978Y0044458D01*
X0114574Y0040464D02*
X0116853Y0040464D01*
X0115855Y0039466D02*
X0114574Y0039466D01*
X0114856Y0038467D02*
X0113695Y0038467D01*
X0113857Y0037469D02*
X0112697Y0037469D01*
X0112859Y0036470D02*
X0112041Y0036470D01*
X0120000Y0025500D02*
X0125000Y0030500D01*
X0128881Y0030479D02*
X0136944Y0030479D01*
X0137942Y0031478D02*
X0128796Y0031478D01*
X0128382Y0032476D02*
X0138941Y0032476D01*
X0139000Y0033475D02*
X0127514Y0033475D01*
X0128779Y0029481D02*
X0135945Y0029481D01*
X0134947Y0028482D02*
X0128365Y0028482D01*
X0127472Y0027484D02*
X0133948Y0027484D01*
X0132950Y0026485D02*
X0124096Y0026485D01*
X0123098Y0025487D02*
X0131951Y0025487D01*
X0130953Y0024488D02*
X0122099Y0024488D01*
X0120000Y0025500D02*
X0092500Y0025500D01*
X0089374Y0028626D01*
X0089374Y0031500D01*
X0079000Y0031478D02*
X0023200Y0031478D01*
X0023200Y0032476D02*
X0079000Y0032476D01*
X0079000Y0033475D02*
X0068821Y0033475D01*
X0069175Y0033829D02*
X0068364Y0033018D01*
X0067305Y0032580D01*
X0066159Y0032580D01*
X0065100Y0033018D01*
X0064290Y0033829D01*
X0063851Y0034888D01*
X0063851Y0036034D01*
X0064290Y0037093D01*
X0065100Y0037903D01*
X0066159Y0038342D01*
X0067305Y0038342D01*
X0068364Y0037903D01*
X0069175Y0037093D01*
X0069613Y0036034D01*
X0069613Y0034888D01*
X0069175Y0033829D01*
X0069442Y0034473D02*
X0079000Y0034473D01*
X0079000Y0035472D02*
X0069613Y0035472D01*
X0069433Y0036470D02*
X0079000Y0036470D01*
X0079000Y0037469D02*
X0068799Y0037469D01*
X0064666Y0037469D02*
X0023200Y0037469D01*
X0023200Y0038467D02*
X0079000Y0038467D01*
X0079000Y0039466D02*
X0023200Y0039466D01*
X0023200Y0040464D02*
X0079000Y0040464D01*
X0079000Y0041463D02*
X0023200Y0041463D01*
X0023200Y0042461D02*
X0057503Y0042461D01*
X0056505Y0043460D02*
X0023200Y0043460D01*
X0023200Y0044458D02*
X0055506Y0044458D01*
X0054508Y0045457D02*
X0023200Y0045457D01*
X0023200Y0046455D02*
X0053509Y0046455D01*
X0052511Y0047454D02*
X0023200Y0047454D01*
X0023200Y0048452D02*
X0051512Y0048452D01*
X0051021Y0049451D02*
X0023200Y0049451D01*
X0023200Y0050449D02*
X0050148Y0050449D01*
X0049735Y0051448D02*
X0023200Y0051448D01*
X0023200Y0052446D02*
X0049619Y0052446D01*
X0049691Y0053445D02*
X0023200Y0053445D01*
X0023200Y0054443D02*
X0050104Y0054443D01*
X0050953Y0055442D02*
X0023200Y0055442D01*
X0023200Y0056440D02*
X0063119Y0056440D01*
X0063188Y0057439D02*
X0023200Y0057439D01*
X0023200Y0058437D02*
X0047554Y0058437D01*
X0047629Y0058417D02*
X0052248Y0058417D01*
X0052248Y0062764D01*
X0046327Y0062764D01*
X0046327Y0059720D01*
X0046429Y0059338D01*
X0046626Y0058996D01*
X0046906Y0058717D01*
X0047248Y0058520D01*
X0047629Y0058417D01*
X0046403Y0059436D02*
X0023200Y0059436D01*
X0023200Y0060434D02*
X0046327Y0060434D01*
X0046327Y0061433D02*
X0023200Y0061433D01*
X0023200Y0062432D02*
X0046327Y0062432D01*
X0046327Y0063764D02*
X0046327Y0066808D01*
X0046429Y0067189D01*
X0046626Y0067531D01*
X0046906Y0067811D01*
X0047248Y0068008D01*
X0047629Y0068110D01*
X0052248Y0068110D01*
X0052248Y0063764D01*
X0053248Y0063764D01*
X0053248Y0068110D01*
X0057867Y0068110D01*
X0058248Y0068008D01*
X0058590Y0067811D01*
X0058870Y0067531D01*
X0059067Y0067189D01*
X0059169Y0066808D01*
X0059169Y0063764D01*
X0053248Y0063764D01*
X0053248Y0062764D01*
X0059169Y0062764D01*
X0059169Y0059720D01*
X0059067Y0059338D01*
X0058870Y0058996D01*
X0058590Y0058717D01*
X0058248Y0058520D01*
X0057867Y0058417D01*
X0053248Y0058417D01*
X0053248Y0062764D01*
X0052248Y0062764D01*
X0052248Y0063764D01*
X0046327Y0063764D01*
X0046327Y0064429D02*
X0023200Y0064429D01*
X0023200Y0065427D02*
X0046327Y0065427D01*
X0046327Y0066426D02*
X0023200Y0066426D01*
X0023200Y0067424D02*
X0046565Y0067424D01*
X0052248Y0067424D02*
X0053248Y0067424D01*
X0053248Y0066426D02*
X0052248Y0066426D01*
X0052248Y0065427D02*
X0053248Y0065427D01*
X0053248Y0064429D02*
X0052248Y0064429D01*
X0052248Y0063430D02*
X0023200Y0063430D01*
X0023200Y0068423D02*
X0105311Y0068423D01*
X0104313Y0067424D02*
X0058931Y0067424D01*
X0059169Y0066426D02*
X0103314Y0066426D01*
X0102316Y0065427D02*
X0059169Y0065427D01*
X0059169Y0064429D02*
X0101317Y0064429D01*
X0100319Y0063430D02*
X0053248Y0063430D01*
X0053248Y0062432D02*
X0052248Y0062432D01*
X0052248Y0061433D02*
X0053248Y0061433D01*
X0053248Y0060434D02*
X0052248Y0060434D01*
X0052248Y0059436D02*
X0053248Y0059436D01*
X0053248Y0058437D02*
X0052248Y0058437D01*
X0056047Y0055442D02*
X0063237Y0055442D01*
X0063651Y0054443D02*
X0056896Y0054443D01*
X0057309Y0053445D02*
X0064566Y0053445D01*
X0064800Y0052446D02*
X0057381Y0052446D01*
X0057265Y0051448D02*
X0064941Y0051448D01*
X0065939Y0050449D02*
X0056851Y0050449D01*
X0057585Y0049451D02*
X0091340Y0049451D01*
X0092338Y0050449D02*
X0076061Y0050449D01*
X0076700Y0051089D02*
X0076700Y0051089D01*
X0077059Y0051448D02*
X0093337Y0051448D01*
X0094335Y0052446D02*
X0078058Y0052446D01*
X0079056Y0053445D02*
X0095334Y0053445D01*
X0096332Y0054443D02*
X0080055Y0054443D01*
X0081053Y0055442D02*
X0101414Y0055442D01*
X0102288Y0056440D02*
X0082052Y0056440D01*
X0081500Y0059000D02*
X0099000Y0059000D01*
X0106500Y0066500D01*
X0162500Y0066500D01*
X0167000Y0071000D01*
X0193000Y0071000D01*
X0191491Y0067424D02*
X0166535Y0067424D01*
X0165537Y0066426D02*
X0169155Y0066426D01*
X0168650Y0065427D02*
X0164538Y0065427D01*
X0163540Y0064429D02*
X0168650Y0064429D01*
X0168650Y0063430D02*
X0106541Y0063430D01*
X0105543Y0062432D02*
X0168650Y0062432D01*
X0168650Y0061433D02*
X0104544Y0061433D01*
X0103546Y0060434D02*
X0140446Y0060434D01*
X0139601Y0059436D02*
X0102547Y0059436D01*
X0099320Y0062432D02*
X0059169Y0062432D01*
X0059169Y0061433D02*
X0098322Y0061433D01*
X0108271Y0056440D02*
X0108981Y0056440D01*
X0105280Y0052894D02*
X0104886Y0052500D01*
X0097500Y0052500D01*
X0089374Y0044374D01*
X0093568Y0045457D02*
X0095694Y0045457D01*
X0096693Y0046455D02*
X0094567Y0046455D01*
X0095565Y0047454D02*
X0118300Y0047454D01*
X0131780Y0044458D02*
X0138160Y0044458D01*
X0145432Y0054443D02*
X0163945Y0054443D01*
X0167172Y0057439D02*
X0168650Y0057439D01*
X0168650Y0058437D02*
X0166174Y0058437D01*
X0165175Y0059436D02*
X0168650Y0059436D01*
X0168650Y0060434D02*
X0145554Y0060434D01*
X0145397Y0073415D02*
X0125903Y0073415D01*
X0125903Y0073325D02*
X0125203Y0071634D01*
X0123909Y0070340D01*
X0122218Y0069640D01*
X0120388Y0069640D01*
X0118697Y0070340D01*
X0117403Y0071634D01*
X0116703Y0073325D01*
X0116703Y0075155D01*
X0117403Y0076846D01*
X0118697Y0078140D01*
X0120388Y0078840D01*
X0122218Y0078840D01*
X0123909Y0078140D01*
X0125203Y0076846D01*
X0125903Y0075155D01*
X0125903Y0073325D01*
X0125527Y0072417D02*
X0165305Y0072417D01*
X0164307Y0071418D02*
X0124986Y0071418D01*
X0123988Y0070420D02*
X0163308Y0070420D01*
X0162310Y0069421D02*
X0023200Y0069421D01*
X0023200Y0070420D02*
X0064092Y0070420D01*
X0064302Y0070210D02*
X0065728Y0069619D01*
X0067272Y0069619D01*
X0068698Y0070210D01*
X0069790Y0071302D01*
X0070381Y0072728D01*
X0070381Y0074272D01*
X0069790Y0075698D01*
X0068698Y0076790D01*
X0068413Y0076909D01*
X0068413Y0077197D01*
X0070694Y0077197D01*
X0071613Y0077577D01*
X0074416Y0080381D01*
X0075119Y0081084D01*
X0075500Y0082003D01*
X0075500Y0088497D01*
X0075119Y0089416D01*
X0074416Y0090119D01*
X0067416Y0097119D01*
X0067304Y0097166D01*
X0067290Y0097198D01*
X0066198Y0098290D01*
X0064772Y0098881D01*
X0063654Y0098881D01*
X0061176Y0101360D01*
X0060257Y0101740D01*
X0056168Y0101740D01*
X0055826Y0102082D01*
X0049693Y0102082D01*
X0048698Y0101086D01*
X0048698Y0097394D01*
X0049693Y0096398D01*
X0055826Y0096398D01*
X0056168Y0096740D01*
X0058724Y0096740D01*
X0060119Y0095346D01*
X0060119Y0094228D01*
X0060710Y0092802D01*
X0061802Y0091710D01*
X0063228Y0091119D01*
X0064772Y0091119D01*
X0065885Y0091580D01*
X0070500Y0086964D01*
X0070500Y0083536D01*
X0069161Y0082197D01*
X0068413Y0082197D01*
X0068413Y0082566D01*
X0067794Y0083185D01*
X0067913Y0083303D01*
X0068110Y0083645D01*
X0068213Y0084027D01*
X0068213Y0085905D01*
X0065228Y0085905D01*
X0065228Y0086874D01*
X0064260Y0086874D01*
X0064260Y0090055D01*
X0062578Y0090055D01*
X0062197Y0089953D01*
X0061855Y0089755D01*
X0061575Y0089476D01*
X0061378Y0089134D01*
X0061276Y0088753D01*
X0061276Y0086874D01*
X0064260Y0086874D01*
X0064260Y0085905D01*
X0061276Y0085905D01*
X0061276Y0084027D01*
X0061378Y0083645D01*
X0061575Y0083303D01*
X0061694Y0083185D01*
X0061076Y0082566D01*
X0061076Y0080724D01*
X0059369Y0080724D01*
X0059369Y0082275D01*
X0058373Y0083271D01*
X0047123Y0083271D01*
X0046127Y0082275D01*
X0046127Y0079500D01*
X0033037Y0079500D01*
X0033397Y0079859D01*
X0034168Y0081721D01*
X0034168Y0083736D01*
X0033397Y0085598D01*
X0031972Y0087023D01*
X0030110Y0087794D01*
X0028095Y0087794D01*
X0026233Y0087023D01*
X0024808Y0085598D01*
X0024037Y0083736D01*
X0024037Y0081721D01*
X0024808Y0079859D01*
X0026233Y0078434D01*
X0026912Y0078153D01*
X0026983Y0077981D01*
X0029381Y0075584D01*
X0030084Y0074881D01*
X0031003Y0074500D01*
X0046127Y0074500D01*
X0046127Y0074174D01*
X0047123Y0073178D01*
X0058373Y0073178D01*
X0059369Y0074174D01*
X0059369Y0075724D01*
X0062244Y0075724D01*
X0062244Y0074759D01*
X0062619Y0073854D01*
X0062619Y0072728D01*
X0063210Y0071302D01*
X0064302Y0070210D01*
X0063161Y0071418D02*
X0023200Y0071418D01*
X0023200Y0072417D02*
X0062748Y0072417D01*
X0062619Y0073415D02*
X0058611Y0073415D01*
X0059369Y0074414D02*
X0062387Y0074414D01*
X0062244Y0075412D02*
X0059369Y0075412D01*
X0059369Y0081403D02*
X0061076Y0081403D01*
X0061076Y0082402D02*
X0059243Y0082402D01*
X0061519Y0083400D02*
X0034168Y0083400D01*
X0034168Y0082402D02*
X0046253Y0082402D01*
X0046127Y0081403D02*
X0034036Y0081403D01*
X0033623Y0080405D02*
X0046127Y0080405D01*
X0052000Y0086500D02*
X0053000Y0087500D01*
X0063634Y0087500D01*
X0064744Y0086390D01*
X0064260Y0086396D02*
X0032598Y0086396D01*
X0033480Y0085397D02*
X0061276Y0085397D01*
X0061276Y0084399D02*
X0033893Y0084399D01*
X0031074Y0087394D02*
X0061276Y0087394D01*
X0061276Y0088393D02*
X0023200Y0088393D01*
X0023200Y0089391D02*
X0061526Y0089391D01*
X0062577Y0091388D02*
X0056390Y0091388D01*
X0056322Y0091272D02*
X0056520Y0091614D01*
X0056622Y0091995D01*
X0056622Y0093264D01*
X0052831Y0093264D01*
X0052831Y0093406D01*
X0052689Y0093406D01*
X0052689Y0095976D01*
X0050200Y0095976D01*
X0049819Y0095874D01*
X0049477Y0095677D01*
X0049197Y0095397D01*
X0049000Y0095055D01*
X0048898Y0094674D01*
X0048898Y0093406D01*
X0052689Y0093406D01*
X0052689Y0093264D01*
X0048898Y0093264D01*
X0048898Y0091995D01*
X0049000Y0091614D01*
X0049197Y0091272D01*
X0049477Y0090993D01*
X0049819Y0090795D01*
X0050200Y0090693D01*
X0052689Y0090693D01*
X0052689Y0093264D01*
X0052831Y0093264D01*
X0052831Y0090693D01*
X0055320Y0090693D01*
X0055701Y0090795D01*
X0056043Y0090993D01*
X0056322Y0091272D01*
X0056622Y0092387D02*
X0061124Y0092387D01*
X0060468Y0093385D02*
X0052831Y0093385D01*
X0052831Y0093406D02*
X0056622Y0093406D01*
X0056622Y0094674D01*
X0056520Y0095055D01*
X0056322Y0095397D01*
X0056043Y0095677D01*
X0055701Y0095874D01*
X0055320Y0095976D01*
X0052831Y0095976D01*
X0052831Y0093406D01*
X0052689Y0093385D02*
X0023200Y0093385D01*
X0023200Y0092387D02*
X0048898Y0092387D01*
X0049130Y0091388D02*
X0023200Y0091388D01*
X0023200Y0090390D02*
X0067075Y0090390D01*
X0066910Y0090055D02*
X0065228Y0090055D01*
X0065228Y0086874D01*
X0068213Y0086874D01*
X0068213Y0088753D01*
X0068110Y0089134D01*
X0067913Y0089476D01*
X0067634Y0089755D01*
X0067292Y0089953D01*
X0066910Y0090055D01*
X0067962Y0089391D02*
X0068073Y0089391D01*
X0068213Y0088393D02*
X0069072Y0088393D01*
X0068213Y0087394D02*
X0070070Y0087394D01*
X0070500Y0086396D02*
X0065228Y0086396D01*
X0065228Y0087394D02*
X0064260Y0087394D01*
X0064260Y0088393D02*
X0065228Y0088393D01*
X0065228Y0089391D02*
X0064260Y0089391D01*
X0065423Y0091388D02*
X0066076Y0091388D01*
X0064000Y0095000D02*
X0063760Y0095240D01*
X0060082Y0095382D02*
X0056331Y0095382D01*
X0056622Y0094384D02*
X0060119Y0094384D01*
X0059084Y0096381D02*
X0046192Y0096381D01*
X0046192Y0097379D02*
X0048712Y0097379D01*
X0048698Y0098378D02*
X0046192Y0098378D01*
X0046192Y0099376D02*
X0048698Y0099376D01*
X0048698Y0100375D02*
X0046192Y0100375D01*
X0046192Y0101373D02*
X0048985Y0101373D01*
X0049625Y0102372D02*
X0046192Y0102372D01*
X0046192Y0103370D02*
X0048698Y0103370D01*
X0048698Y0104369D02*
X0045704Y0104369D01*
X0046192Y0103881D02*
X0045196Y0104877D01*
X0035914Y0104877D01*
X0034918Y0103881D01*
X0034918Y0094599D01*
X0035914Y0093603D01*
X0045196Y0093603D01*
X0046192Y0094599D01*
X0046192Y0103881D01*
X0048698Y0105368D02*
X0023200Y0105368D01*
X0023200Y0106366D02*
X0048698Y0106366D01*
X0049071Y0107365D02*
X0023200Y0107365D01*
X0023200Y0108363D02*
X0026405Y0108363D01*
X0025306Y0109362D02*
X0023200Y0109362D01*
X0023200Y0110360D02*
X0024601Y0110360D01*
X0024187Y0111359D02*
X0023200Y0111359D01*
X0023200Y0112357D02*
X0024037Y0112357D01*
X0024037Y0113356D02*
X0023200Y0113356D01*
X0023200Y0114354D02*
X0024293Y0114354D01*
X0024707Y0115353D02*
X0023200Y0115353D01*
X0023200Y0116351D02*
X0025562Y0116351D01*
X0027023Y0117350D02*
X0023200Y0117350D01*
X0023200Y0118348D02*
X0037265Y0118348D01*
X0037265Y0117350D02*
X0031182Y0117350D01*
X0032643Y0116351D02*
X0037265Y0116351D01*
X0038255Y0115353D02*
X0033498Y0115353D01*
X0037265Y0119347D02*
X0023200Y0119347D01*
X0023200Y0120345D02*
X0037265Y0120345D01*
X0037265Y0121344D02*
X0023200Y0121344D01*
X0023200Y0122342D02*
X0037265Y0122342D01*
X0037265Y0123341D02*
X0023200Y0123341D01*
X0023200Y0124339D02*
X0037265Y0124339D01*
X0038158Y0125338D02*
X0023200Y0125338D01*
X0023200Y0126336D02*
X0055950Y0126336D01*
X0055950Y0125338D02*
X0049614Y0125338D01*
X0050507Y0124339D02*
X0055950Y0124339D01*
X0055740Y0123341D02*
X0050507Y0123341D01*
X0050507Y0117350D02*
X0055072Y0117350D01*
X0055443Y0116351D02*
X0050507Y0116351D01*
X0049517Y0115353D02*
X0055072Y0115353D01*
X0055072Y0114354D02*
X0049796Y0114354D01*
X0052112Y0113395D02*
X0052112Y0113395D01*
X0052152Y0113356D02*
X0055072Y0113356D01*
X0055072Y0112357D02*
X0053150Y0112357D01*
X0054149Y0111359D02*
X0055072Y0111359D01*
X0054155Y0111353D02*
X0054155Y0111353D01*
X0049934Y0108363D02*
X0031800Y0108363D01*
X0032899Y0109362D02*
X0048670Y0109362D01*
X0056822Y0105368D02*
X0075500Y0105368D01*
X0075500Y0106366D02*
X0057516Y0106366D01*
X0058514Y0107365D02*
X0075500Y0107365D01*
X0075500Y0108363D02*
X0059513Y0108363D01*
X0061529Y0109362D02*
X0075500Y0109362D01*
X0075500Y0110360D02*
X0062409Y0110360D01*
X0062409Y0111359D02*
X0075500Y0111359D01*
X0075500Y0112357D02*
X0062409Y0112357D01*
X0062409Y0113356D02*
X0065521Y0113356D01*
X0064284Y0114354D02*
X0062409Y0114354D01*
X0062409Y0115353D02*
X0063871Y0115353D01*
X0063851Y0116351D02*
X0062037Y0116351D01*
X0062409Y0117350D02*
X0064184Y0117350D01*
X0069280Y0117350D02*
X0071115Y0117350D01*
X0072113Y0116351D02*
X0069613Y0116351D01*
X0069594Y0115353D02*
X0073112Y0115353D01*
X0074110Y0114354D02*
X0069180Y0114354D01*
X0067943Y0113356D02*
X0075109Y0113356D01*
X0079184Y0116351D02*
X0085532Y0116351D01*
X0085532Y0115353D02*
X0080146Y0115353D01*
X0080500Y0114354D02*
X0085532Y0114354D01*
X0085532Y0113356D02*
X0080500Y0113356D01*
X0080500Y0112357D02*
X0085532Y0112357D01*
X0085532Y0111359D02*
X0080500Y0111359D01*
X0080500Y0110360D02*
X0085818Y0110360D01*
X0087873Y0109362D02*
X0080500Y0109362D01*
X0080500Y0108363D02*
X0087364Y0108363D01*
X0087119Y0107365D02*
X0080500Y0107365D01*
X0080500Y0106366D02*
X0087119Y0106366D01*
X0087475Y0105368D02*
X0080500Y0105368D01*
X0080500Y0104369D02*
X0088142Y0104369D01*
X0089621Y0103370D02*
X0080500Y0103370D01*
X0080500Y0102372D02*
X0096473Y0102372D01*
X0096473Y0103370D02*
X0092379Y0103370D01*
X0093858Y0104369D02*
X0096473Y0104369D01*
X0096473Y0105368D02*
X0094525Y0105368D01*
X0094881Y0106366D02*
X0096473Y0106366D01*
X0096473Y0107365D02*
X0094881Y0107365D01*
X0094636Y0108363D02*
X0097218Y0108363D01*
X0094127Y0109362D02*
X0106473Y0109362D01*
X0106473Y0110360D02*
X0093500Y0110360D01*
X0091000Y0111717D02*
X0089201Y0113516D01*
X0085532Y0117350D02*
X0078186Y0117350D01*
X0077187Y0118348D02*
X0085532Y0118348D01*
X0085532Y0119347D02*
X0076189Y0119347D01*
X0075190Y0120345D02*
X0085532Y0120345D01*
X0085532Y0121344D02*
X0074192Y0121344D01*
X0072878Y0122342D02*
X0085532Y0122342D01*
X0085795Y0123341D02*
X0061741Y0123341D01*
X0060350Y0124339D02*
X0069194Y0124339D01*
X0071482Y0124339D02*
X0094794Y0124339D01*
X0097082Y0124339D02*
X0101119Y0124339D01*
X0101119Y0125338D02*
X0099202Y0125338D01*
X0100201Y0126336D02*
X0101353Y0126336D01*
X0101846Y0127335D02*
X0100799Y0127335D01*
X0097500Y0130500D02*
X0096710Y0129710D01*
X0095938Y0129710D01*
X0070338Y0129710D01*
X0074359Y0133326D02*
X0091917Y0133326D01*
X0091177Y0132327D02*
X0075099Y0132327D01*
X0073309Y0134324D02*
X0092966Y0134324D01*
X0097500Y0130500D02*
X0153500Y0130500D01*
X0150837Y0133326D02*
X0121815Y0133326D01*
X0121698Y0133210D02*
X0122790Y0134302D01*
X0123381Y0135728D01*
X0123381Y0137272D01*
X0122790Y0138698D01*
X0121698Y0139790D01*
X0120272Y0140381D01*
X0118728Y0140381D01*
X0117886Y0140032D01*
X0118381Y0141228D01*
X0118381Y0142772D01*
X0117790Y0144198D01*
X0116698Y0145290D01*
X0115272Y0145881D01*
X0113728Y0145881D01*
X0112302Y0145290D01*
X0111211Y0144200D01*
X0109911Y0144200D01*
X0107972Y0146139D01*
X0109228Y0145619D01*
X0110772Y0145619D01*
X0112198Y0146210D01*
X0113289Y0147300D01*
X0121411Y0147300D01*
X0124411Y0150300D01*
X0125580Y0150300D01*
X0125580Y0145284D01*
X0126056Y0144807D01*
X0125580Y0144330D01*
X0125580Y0138591D01*
X0126575Y0137595D01*
X0131921Y0137595D01*
X0132917Y0138591D01*
X0132917Y0139261D01*
X0139628Y0139261D01*
X0139800Y0139089D01*
X0141089Y0137800D01*
X0141182Y0137800D01*
X0142056Y0136926D01*
X0146614Y0136926D01*
X0147609Y0137922D01*
X0147609Y0142873D01*
X0146614Y0143869D01*
X0142056Y0143869D01*
X0141649Y0143462D01*
X0141451Y0143661D01*
X0140149Y0143661D01*
X0140790Y0144302D01*
X0141381Y0145728D01*
X0141381Y0147272D01*
X0140790Y0148698D01*
X0139698Y0149790D01*
X0138468Y0150300D01*
X0144800Y0150300D01*
X0144800Y0146190D01*
X0145796Y0145194D01*
X0150354Y0145194D01*
X0151350Y0146190D01*
X0151350Y0146300D01*
X0154089Y0146300D01*
X0155589Y0144800D01*
X0159221Y0144800D01*
X0159221Y0144327D01*
X0160217Y0143331D01*
X0165956Y0143331D01*
X0166433Y0143808D01*
X0166910Y0143331D01*
X0172649Y0143331D01*
X0173645Y0144327D01*
X0173645Y0149673D01*
X0172649Y0150668D01*
X0171700Y0150668D01*
X0171700Y0152411D01*
X0170610Y0153501D01*
X0209128Y0153501D01*
X0208619Y0152272D01*
X0208619Y0150728D01*
X0209210Y0149302D01*
X0173645Y0149302D01*
X0173645Y0148303D02*
X0210208Y0148303D01*
X0210302Y0148210D02*
X0211728Y0147619D01*
X0213270Y0147619D01*
X0215800Y0145089D01*
X0215800Y0129576D01*
X0210009Y0129576D01*
X0210009Y0135856D01*
X0209013Y0136852D01*
X0196810Y0136852D01*
X0196810Y0137699D01*
X0197730Y0138619D01*
X0199272Y0138619D01*
X0200698Y0139210D01*
X0201790Y0140302D01*
X0202381Y0141728D01*
X0202381Y0143272D01*
X0201790Y0144698D01*
X0200698Y0145790D01*
X0199272Y0146381D01*
X0197728Y0146381D01*
X0196302Y0145790D01*
X0195210Y0144698D01*
X0194619Y0143272D01*
X0194619Y0141730D01*
X0192410Y0139522D01*
X0192410Y0136852D01*
X0183357Y0136852D01*
X0182361Y0135856D01*
X0182361Y0129576D01*
X0176081Y0129576D01*
X0175085Y0128580D01*
X0175085Y0121822D01*
X0175285Y0121622D01*
X0175285Y0120526D01*
X0179235Y0120526D01*
X0179235Y0120426D01*
X0175285Y0120426D01*
X0175285Y0120000D01*
X0173105Y0120000D01*
X0173105Y0121673D01*
X0172487Y0122291D01*
X0172606Y0122410D01*
X0172803Y0122752D01*
X0172905Y0123133D01*
X0172905Y0125012D01*
X0169921Y0125012D01*
X0169921Y0125980D01*
X0172905Y0125980D01*
X0172905Y0127859D01*
X0172803Y0128240D01*
X0172606Y0128582D01*
X0172327Y0128862D01*
X0171984Y0129059D01*
X0171603Y0129161D01*
X0169921Y0129161D01*
X0169921Y0125980D01*
X0168953Y0125980D01*
X0168953Y0125012D01*
X0165969Y0125012D01*
X0165969Y0123133D01*
X0166071Y0122752D01*
X0166268Y0122410D01*
X0166387Y0122291D01*
X0165769Y0121673D01*
X0165769Y0120000D01*
X0161489Y0120000D01*
X0162290Y0120802D01*
X0162881Y0122228D01*
X0162881Y0123772D01*
X0162290Y0125198D01*
X0161198Y0126290D01*
X0159772Y0126881D01*
X0158228Y0126881D01*
X0156802Y0126290D01*
X0155710Y0125198D01*
X0155119Y0123772D01*
X0155119Y0123200D01*
X0147289Y0123200D01*
X0146198Y0124290D01*
X0144772Y0124881D01*
X0143228Y0124881D01*
X0141802Y0124290D01*
X0140711Y0123200D01*
X0134492Y0123200D01*
X0134492Y0123200D01*
X0134492Y0124882D01*
X0131311Y0124882D01*
X0131311Y0125850D01*
X0134492Y0125850D01*
X0134492Y0127532D01*
X0134390Y0127914D01*
X0134192Y0128256D01*
X0134148Y0128300D01*
X0150211Y0128300D01*
X0151302Y0127210D01*
X0152728Y0126619D01*
X0154272Y0126619D01*
X0155698Y0127210D01*
X0156790Y0128302D01*
X0157381Y0129728D01*
X0157381Y0131272D01*
X0156790Y0132698D01*
X0155698Y0133790D01*
X0154272Y0134381D01*
X0152728Y0134381D01*
X0151302Y0133790D01*
X0150211Y0132700D01*
X0120468Y0132700D01*
X0121698Y0133210D01*
X0122800Y0134324D02*
X0152591Y0134324D01*
X0154409Y0134324D02*
X0182361Y0134324D01*
X0182361Y0133326D02*
X0156163Y0133326D01*
X0156944Y0132327D02*
X0182361Y0132327D01*
X0182361Y0131329D02*
X0157358Y0131329D01*
X0157381Y0130330D02*
X0182361Y0130330D01*
X0183485Y0128452D02*
X0208885Y0128452D01*
X0208885Y0118672D01*
X0209085Y0118472D01*
X0209085Y0117377D01*
X0213035Y0117377D01*
X0213035Y0117277D01*
X0209085Y0117277D01*
X0209085Y0116181D01*
X0208885Y0115981D01*
X0208885Y0112150D01*
X0207619Y0113416D01*
X0206762Y0114273D01*
X0207290Y0114802D01*
X0207881Y0116228D01*
X0207881Y0117772D01*
X0207290Y0119198D01*
X0206198Y0120290D01*
X0204772Y0120881D01*
X0203228Y0120881D01*
X0201802Y0120290D01*
X0200710Y0119198D01*
X0200119Y0117772D01*
X0200119Y0116228D01*
X0200710Y0114802D01*
X0201011Y0114500D01*
X0184503Y0114500D01*
X0183584Y0114119D01*
X0183285Y0113821D01*
X0183285Y0114127D01*
X0179335Y0114127D01*
X0179335Y0114227D01*
X0183285Y0114227D01*
X0183285Y0114827D01*
X0187226Y0114827D01*
X0187728Y0114619D01*
X0189272Y0114619D01*
X0190698Y0115210D01*
X0191790Y0116302D01*
X0192381Y0117728D01*
X0192381Y0119272D01*
X0191790Y0120698D01*
X0190698Y0121790D01*
X0189272Y0122381D01*
X0187728Y0122381D01*
X0186302Y0121790D01*
X0185210Y0120698D01*
X0184849Y0119827D01*
X0183285Y0119827D01*
X0183285Y0120426D01*
X0179335Y0120426D01*
X0179335Y0120526D01*
X0183285Y0120526D01*
X0183285Y0121622D01*
X0183485Y0121822D01*
X0183485Y0128452D01*
X0183485Y0128333D02*
X0208885Y0128333D01*
X0208885Y0127335D02*
X0183485Y0127335D01*
X0183485Y0126336D02*
X0208885Y0126336D01*
X0208885Y0125338D02*
X0183485Y0125338D01*
X0183485Y0124339D02*
X0208885Y0124339D01*
X0208885Y0123341D02*
X0183485Y0123341D01*
X0183485Y0122342D02*
X0187634Y0122342D01*
X0189366Y0122342D02*
X0208885Y0122342D01*
X0208885Y0121344D02*
X0191145Y0121344D01*
X0191937Y0120345D02*
X0201934Y0120345D01*
X0200858Y0119347D02*
X0192350Y0119347D01*
X0192381Y0118348D02*
X0200358Y0118348D01*
X0200119Y0117350D02*
X0192224Y0117350D01*
X0191811Y0116351D02*
X0200119Y0116351D01*
X0200481Y0115353D02*
X0190841Y0115353D01*
X0195000Y0114500D02*
X0179608Y0114500D01*
X0179285Y0114177D01*
X0179235Y0114127D02*
X0175285Y0114127D01*
X0175285Y0113032D01*
X0175085Y0112832D01*
X0175085Y0106700D01*
X0165911Y0106700D01*
X0165414Y0107198D01*
X0165499Y0107198D01*
X0166118Y0107816D01*
X0166236Y0107697D01*
X0166578Y0107500D01*
X0166960Y0107398D01*
X0168839Y0107398D01*
X0168839Y0110382D01*
X0169807Y0110382D01*
X0169807Y0111350D01*
X0172988Y0111350D01*
X0172988Y0113032D01*
X0172886Y0113414D01*
X0172688Y0113756D01*
X0172409Y0114035D01*
X0172067Y0114232D01*
X0171686Y0114335D01*
X0169807Y0114335D01*
X0169807Y0111350D01*
X0168839Y0111350D01*
X0168839Y0114335D01*
X0166960Y0114335D01*
X0166578Y0114232D01*
X0166236Y0114035D01*
X0166118Y0113916D01*
X0165499Y0114535D01*
X0161070Y0114535D01*
X0161536Y0115000D01*
X0166702Y0115000D01*
X0166764Y0114938D01*
X0172110Y0114938D01*
X0172172Y0115000D01*
X0175285Y0115000D01*
X0175285Y0114227D01*
X0179235Y0114227D01*
X0179235Y0114127D01*
X0183285Y0114354D02*
X0184151Y0114354D01*
X0179285Y0117327D02*
X0179112Y0117500D01*
X0179285Y0120476D02*
X0184976Y0120476D01*
X0188500Y0124000D01*
X0194000Y0124000D01*
X0196500Y0121500D01*
X0196500Y0116000D01*
X0195000Y0114500D01*
X0198500Y0108000D02*
X0194500Y0104000D01*
X0194500Y0098962D01*
X0194610Y0098852D01*
X0197760Y0098852D02*
X0197760Y0067760D01*
X0189311Y0059311D01*
X0173303Y0059311D01*
X0177956Y0062432D02*
X0189320Y0062432D01*
X0190319Y0063430D02*
X0177956Y0063430D01*
X0177956Y0064429D02*
X0191317Y0064429D01*
X0192316Y0065427D02*
X0177956Y0065427D01*
X0177451Y0066426D02*
X0193314Y0066426D01*
X0190089Y0068423D02*
X0167534Y0068423D01*
X0156327Y0073415D02*
X0178901Y0073415D01*
X0178729Y0074414D02*
X0156499Y0074414D01*
X0156499Y0075412D02*
X0178729Y0075412D01*
X0178729Y0076411D02*
X0156499Y0076411D01*
X0156499Y0077409D02*
X0178729Y0077409D01*
X0178729Y0078408D02*
X0156499Y0078408D01*
X0156499Y0079406D02*
X0178729Y0079406D01*
X0189300Y0085397D02*
X0141381Y0085397D01*
X0141330Y0086396D02*
X0189300Y0086396D01*
X0189300Y0087394D02*
X0165383Y0087394D01*
X0166328Y0088393D02*
X0189300Y0088393D01*
X0189300Y0089391D02*
X0166742Y0089391D01*
X0166881Y0090390D02*
X0189300Y0090390D01*
X0189300Y0091388D02*
X0189000Y0091388D01*
X0188000Y0093500D02*
X0175500Y0093500D01*
X0172000Y0097000D01*
X0167000Y0097000D01*
X0170112Y0099376D02*
X0182361Y0099376D01*
X0182361Y0098378D02*
X0173733Y0098378D01*
X0174732Y0097379D02*
X0182361Y0097379D01*
X0182361Y0096381D02*
X0175730Y0096381D01*
X0172503Y0093385D02*
X0168415Y0093385D01*
X0169873Y0094384D02*
X0171505Y0094384D01*
X0173502Y0092387D02*
X0166419Y0092387D01*
X0166833Y0091388D02*
X0174500Y0091388D01*
X0164127Y0094384D02*
X0162227Y0094384D01*
X0161229Y0095382D02*
X0163469Y0095382D01*
X0163119Y0096381D02*
X0082155Y0096381D01*
X0083153Y0095382D02*
X0097271Y0095382D01*
X0099000Y0094000D02*
X0096000Y0091000D01*
X0092374Y0092387D02*
X0086149Y0092387D01*
X0087147Y0091388D02*
X0092119Y0091388D01*
X0092119Y0090390D02*
X0088146Y0090390D01*
X0089144Y0089391D02*
X0092465Y0089391D01*
X0093118Y0088393D02*
X0090143Y0088393D01*
X0091141Y0087394D02*
X0094563Y0087394D01*
X0093138Y0085397D02*
X0099850Y0085397D01*
X0099850Y0085425D02*
X0099850Y0083575D01*
X0100558Y0081866D01*
X0101866Y0080558D01*
X0103575Y0079850D01*
X0105425Y0079850D01*
X0107134Y0080558D01*
X0108442Y0081866D01*
X0108498Y0082000D01*
X0117198Y0082000D01*
X0117361Y0081606D01*
X0118669Y0080298D01*
X0120378Y0079590D01*
X0122228Y0079590D01*
X0123937Y0080298D01*
X0125245Y0081606D01*
X0125953Y0083315D01*
X0125953Y0085165D01*
X0125245Y0086874D01*
X0123937Y0088182D01*
X0122228Y0088890D01*
X0120378Y0088890D01*
X0118669Y0088182D01*
X0117487Y0087000D01*
X0108498Y0087000D01*
X0108442Y0087134D01*
X0107134Y0088442D01*
X0105425Y0089150D01*
X0103575Y0089150D01*
X0101866Y0088442D01*
X0100558Y0087134D01*
X0099850Y0085425D01*
X0099850Y0084399D02*
X0094137Y0084399D01*
X0095135Y0083400D02*
X0099922Y0083400D01*
X0100336Y0082402D02*
X0096134Y0082402D01*
X0097132Y0081403D02*
X0101021Y0081403D01*
X0102236Y0080405D02*
X0098131Y0080405D01*
X0099129Y0079406D02*
X0145225Y0079406D01*
X0145225Y0078408D02*
X0123262Y0078408D01*
X0124639Y0077409D02*
X0145225Y0077409D01*
X0145225Y0076411D02*
X0125383Y0076411D01*
X0125797Y0075412D02*
X0145225Y0075412D01*
X0145225Y0074414D02*
X0125903Y0074414D01*
X0119344Y0078408D02*
X0107168Y0078408D01*
X0108167Y0077409D02*
X0117967Y0077409D01*
X0117223Y0076411D02*
X0108742Y0076411D01*
X0109150Y0075412D02*
X0116810Y0075412D01*
X0116703Y0074414D02*
X0109150Y0074414D01*
X0109084Y0073415D02*
X0116703Y0073415D01*
X0117079Y0072417D02*
X0108670Y0072417D01*
X0107994Y0071418D02*
X0117620Y0071418D01*
X0118618Y0070420D02*
X0106800Y0070420D01*
X0102200Y0070420D02*
X0068908Y0070420D01*
X0069839Y0071418D02*
X0101006Y0071418D01*
X0100330Y0072417D02*
X0070252Y0072417D01*
X0070381Y0073415D02*
X0098049Y0073415D01*
X0097051Y0074414D02*
X0070322Y0074414D01*
X0069909Y0075412D02*
X0096052Y0075412D01*
X0095054Y0076411D02*
X0069078Y0076411D01*
X0071207Y0077409D02*
X0094055Y0077409D01*
X0093057Y0078408D02*
X0072443Y0078408D01*
X0073442Y0079406D02*
X0092058Y0079406D01*
X0091060Y0080405D02*
X0074440Y0080405D01*
X0075252Y0081403D02*
X0090061Y0081403D01*
X0089063Y0082402D02*
X0075500Y0082402D01*
X0075500Y0083400D02*
X0088064Y0083400D01*
X0087066Y0084399D02*
X0075500Y0084399D01*
X0075500Y0085397D02*
X0086067Y0085397D01*
X0085069Y0086396D02*
X0075500Y0086396D01*
X0075500Y0087394D02*
X0084070Y0087394D01*
X0083072Y0088393D02*
X0075500Y0088393D01*
X0075130Y0089391D02*
X0082073Y0089391D01*
X0081075Y0090390D02*
X0074146Y0090390D01*
X0073147Y0091388D02*
X0080076Y0091388D01*
X0079078Y0092387D02*
X0072149Y0092387D01*
X0071150Y0093385D02*
X0078079Y0093385D01*
X0077081Y0094384D02*
X0070152Y0094384D01*
X0069153Y0095382D02*
X0076082Y0095382D01*
X0075550Y0096381D02*
X0068155Y0096381D01*
X0067109Y0097379D02*
X0075500Y0097379D01*
X0075500Y0098378D02*
X0065987Y0098378D01*
X0063159Y0099376D02*
X0075500Y0099376D01*
X0075500Y0100375D02*
X0062161Y0100375D01*
X0061142Y0101373D02*
X0075500Y0101373D01*
X0075500Y0102372D02*
X0055894Y0102372D01*
X0056822Y0103370D02*
X0075500Y0103370D01*
X0075500Y0104369D02*
X0056822Y0104369D01*
X0052831Y0095382D02*
X0052689Y0095382D01*
X0052689Y0094384D02*
X0052831Y0094384D01*
X0052831Y0092387D02*
X0052689Y0092387D01*
X0052689Y0091388D02*
X0052831Y0091388D01*
X0048898Y0094384D02*
X0045977Y0094384D01*
X0046192Y0095382D02*
X0049189Y0095382D01*
X0035133Y0094384D02*
X0023200Y0094384D01*
X0023200Y0095382D02*
X0034918Y0095382D01*
X0034918Y0096381D02*
X0023200Y0096381D01*
X0023200Y0097379D02*
X0034918Y0097379D01*
X0034918Y0098378D02*
X0023200Y0098378D01*
X0023200Y0099376D02*
X0034918Y0099376D01*
X0034918Y0100375D02*
X0023200Y0100375D01*
X0023200Y0101373D02*
X0034918Y0101373D01*
X0034918Y0102372D02*
X0023200Y0102372D01*
X0023200Y0103370D02*
X0034918Y0103370D01*
X0035406Y0104369D02*
X0023200Y0104369D01*
X0023200Y0087394D02*
X0027131Y0087394D01*
X0025606Y0086396D02*
X0023200Y0086396D01*
X0023200Y0085397D02*
X0024725Y0085397D01*
X0024312Y0084399D02*
X0023200Y0084399D01*
X0023200Y0083400D02*
X0024037Y0083400D01*
X0024037Y0082402D02*
X0023200Y0082402D01*
X0023200Y0081403D02*
X0024169Y0081403D01*
X0024582Y0080405D02*
X0023200Y0080405D01*
X0023200Y0079406D02*
X0025261Y0079406D01*
X0026297Y0078408D02*
X0023200Y0078408D01*
X0023200Y0077409D02*
X0027555Y0077409D01*
X0028554Y0076411D02*
X0023200Y0076411D01*
X0023200Y0075412D02*
X0029552Y0075412D01*
X0023200Y0074414D02*
X0046127Y0074414D01*
X0046885Y0073415D02*
X0023200Y0073415D01*
X0057942Y0058437D02*
X0063602Y0058437D01*
X0064447Y0059436D02*
X0059093Y0059436D01*
X0059169Y0060434D02*
X0079823Y0060434D01*
X0078825Y0059436D02*
X0069553Y0059436D01*
X0070398Y0058437D02*
X0077826Y0058437D01*
X0076828Y0057439D02*
X0070812Y0057439D01*
X0070881Y0056440D02*
X0075829Y0056440D01*
X0074831Y0055442D02*
X0070763Y0055442D01*
X0070349Y0054443D02*
X0073832Y0054443D01*
X0074500Y0052000D02*
X0067500Y0052000D01*
X0067000Y0052500D01*
X0067000Y0056500D01*
X0074500Y0052000D02*
X0081500Y0059000D01*
X0090341Y0048452D02*
X0058583Y0048452D01*
X0059582Y0047454D02*
X0081418Y0047454D01*
X0080881Y0046916D02*
X0080881Y0046916D01*
X0094052Y0044458D02*
X0094696Y0044458D01*
X0079000Y0030479D02*
X0023200Y0030479D01*
X0023200Y0029481D02*
X0079000Y0029481D01*
X0079000Y0028482D02*
X0023200Y0028482D01*
X0023200Y0027484D02*
X0079000Y0027484D01*
X0079000Y0026485D02*
X0023200Y0026485D01*
X0023200Y0025487D02*
X0079214Y0025487D01*
X0079976Y0024488D02*
X0023200Y0024488D01*
X0023200Y0023490D02*
X0080975Y0023490D01*
X0081973Y0022491D02*
X0023200Y0022491D01*
X0023200Y0021493D02*
X0082972Y0021493D01*
X0083970Y0020494D02*
X0023200Y0020494D01*
X0023200Y0019496D02*
X0084969Y0019496D01*
X0064644Y0033475D02*
X0023200Y0033475D01*
X0023200Y0034473D02*
X0064023Y0034473D01*
X0063851Y0035472D02*
X0023200Y0035472D01*
X0023200Y0036470D02*
X0064032Y0036470D01*
X0023200Y0018497D02*
X0234367Y0018497D01*
X0234367Y0019496D02*
X0233264Y0019496D01*
X0234263Y0020494D02*
X0234367Y0020494D01*
X0226334Y0019496D02*
X0133031Y0019496D01*
X0138024Y0024488D02*
X0150362Y0024488D01*
X0150362Y0023490D02*
X0151362Y0023490D01*
X0151362Y0024488D02*
X0178729Y0024488D01*
X0178729Y0023490D02*
X0156299Y0023490D01*
X0156299Y0022491D02*
X0178729Y0022491D01*
X0178729Y0021493D02*
X0156188Y0021493D01*
X0151362Y0021493D02*
X0150362Y0021493D01*
X0150362Y0022491D02*
X0151362Y0022491D01*
X0151362Y0025441D02*
X0156299Y0025441D01*
X0156299Y0027993D01*
X0156197Y0028374D01*
X0155999Y0028716D01*
X0155720Y0028996D01*
X0155378Y0029193D01*
X0154997Y0029295D01*
X0151362Y0029295D01*
X0151362Y0025441D01*
X0151362Y0025487D02*
X0150362Y0025487D01*
X0150362Y0026485D02*
X0151362Y0026485D01*
X0151362Y0027484D02*
X0150362Y0027484D01*
X0150362Y0028482D02*
X0151362Y0028482D01*
X0156135Y0028482D02*
X0178729Y0028482D01*
X0178729Y0027484D02*
X0156299Y0027484D01*
X0156299Y0026485D02*
X0178729Y0026485D01*
X0178729Y0025487D02*
X0156299Y0025487D01*
X0143016Y0029481D02*
X0179710Y0029481D01*
X0177387Y0030479D02*
X0197722Y0030479D01*
X0198136Y0029481D02*
X0189022Y0029481D01*
X0187070Y0044458D02*
X0199347Y0044458D01*
X0196807Y0049451D02*
X0204340Y0049451D01*
X0205338Y0050449D02*
X0196393Y0050449D01*
X0195541Y0051448D02*
X0206337Y0051448D01*
X0207335Y0052446D02*
X0177956Y0052446D01*
X0188068Y0045457D02*
X0190554Y0045457D01*
X0195056Y0053445D02*
X0207800Y0053445D01*
X0207800Y0054443D02*
X0196055Y0054443D01*
X0197053Y0055442D02*
X0207800Y0055442D01*
X0207800Y0056440D02*
X0198052Y0056440D01*
X0199050Y0057439D02*
X0207800Y0057439D01*
X0207800Y0058437D02*
X0200049Y0058437D01*
X0201047Y0059436D02*
X0207800Y0059436D01*
X0207800Y0060434D02*
X0202046Y0060434D01*
X0203044Y0061433D02*
X0207800Y0061433D01*
X0207800Y0062432D02*
X0204043Y0062432D01*
X0205041Y0063430D02*
X0207800Y0063430D01*
X0207800Y0064429D02*
X0206040Y0064429D01*
X0207038Y0065427D02*
X0207800Y0065427D01*
X0207500Y0069000D02*
X0207500Y0089000D01*
X0204059Y0092441D01*
X0204059Y0098852D01*
X0201000Y0098761D02*
X0200909Y0098852D01*
X0200909Y0088591D01*
X0202500Y0087000D01*
X0191500Y0084000D02*
X0190000Y0082500D01*
X0140500Y0082500D01*
X0137500Y0085500D01*
X0133619Y0085397D02*
X0125857Y0085397D01*
X0125953Y0084399D02*
X0133755Y0084399D01*
X0134169Y0083400D02*
X0125953Y0083400D01*
X0125575Y0082402D02*
X0135110Y0082402D01*
X0138485Y0081403D02*
X0125042Y0081403D01*
X0124044Y0080405D02*
X0139484Y0080405D01*
X0133670Y0086396D02*
X0125443Y0086396D01*
X0124725Y0087394D02*
X0134084Y0087394D01*
X0134904Y0088393D02*
X0123429Y0088393D01*
X0119178Y0088393D02*
X0107183Y0088393D01*
X0108182Y0087394D02*
X0117881Y0087394D01*
X0117564Y0081403D02*
X0107979Y0081403D01*
X0106764Y0080405D02*
X0118562Y0080405D01*
X0101832Y0078408D02*
X0100128Y0078408D01*
X0100252Y0086396D02*
X0092140Y0086396D01*
X0097437Y0087394D02*
X0100818Y0087394D01*
X0101817Y0088393D02*
X0098882Y0088393D01*
X0099535Y0089391D02*
X0159258Y0089391D01*
X0159119Y0090390D02*
X0099881Y0090390D01*
X0099881Y0091388D02*
X0159000Y0091388D01*
X0159500Y0094000D02*
X0163000Y0090500D01*
X0160617Y0087394D02*
X0140916Y0087394D01*
X0140096Y0088393D02*
X0159672Y0088393D01*
X0159500Y0094000D02*
X0099000Y0094000D01*
X0096705Y0098378D02*
X0080500Y0098378D01*
X0080500Y0099376D02*
X0096473Y0099376D01*
X0096473Y0100375D02*
X0080500Y0100375D01*
X0080500Y0101373D02*
X0096473Y0101373D01*
X0094028Y0094384D02*
X0084152Y0094384D01*
X0085150Y0093385D02*
X0092897Y0093385D01*
X0081156Y0097379D02*
X0163119Y0097379D01*
X0163370Y0098378D02*
X0158641Y0098378D01*
X0158873Y0099376D02*
X0163888Y0099376D01*
X0165006Y0100375D02*
X0158873Y0100375D01*
X0158873Y0101373D02*
X0182361Y0101373D01*
X0182361Y0100375D02*
X0168994Y0100375D01*
X0164017Y0102372D02*
X0159613Y0102372D01*
X0160612Y0103370D02*
X0163018Y0103370D01*
X0162020Y0104369D02*
X0161610Y0104369D01*
X0162630Y0106870D02*
X0165000Y0104500D01*
X0179057Y0104500D01*
X0179285Y0104728D01*
X0179285Y0107878D02*
X0187122Y0107878D01*
X0188500Y0106500D01*
X0179313Y0111000D02*
X0179285Y0111028D01*
X0175085Y0111359D02*
X0172988Y0111359D01*
X0172988Y0110382D02*
X0169807Y0110382D01*
X0169807Y0107398D01*
X0171686Y0107398D01*
X0172067Y0107500D01*
X0172409Y0107697D01*
X0172688Y0107977D01*
X0172886Y0108319D01*
X0172988Y0108700D01*
X0172988Y0110382D01*
X0172988Y0110360D02*
X0175085Y0110360D01*
X0175085Y0109362D02*
X0172988Y0109362D01*
X0172898Y0108363D02*
X0175085Y0108363D01*
X0175085Y0107365D02*
X0165666Y0107365D01*
X0162630Y0106870D02*
X0162630Y0108500D01*
X0157244Y0103114D01*
X0146673Y0103114D01*
X0155870Y0109362D02*
X0158765Y0109362D01*
X0158765Y0110360D02*
X0156896Y0110360D01*
X0157894Y0111359D02*
X0158765Y0111359D01*
X0162630Y0110866D02*
X0162630Y0108500D01*
X0158765Y0108363D02*
X0158129Y0108363D01*
X0165680Y0114354D02*
X0175285Y0114354D01*
X0175285Y0113356D02*
X0172902Y0113356D01*
X0172988Y0112357D02*
X0175085Y0112357D01*
X0169807Y0112357D02*
X0168839Y0112357D01*
X0168839Y0111359D02*
X0169807Y0111359D01*
X0169807Y0110360D02*
X0168839Y0110360D01*
X0168839Y0109362D02*
X0169807Y0109362D01*
X0169807Y0108363D02*
X0168839Y0108363D01*
X0168839Y0113356D02*
X0169807Y0113356D01*
X0168134Y0117500D02*
X0169437Y0118803D01*
X0173105Y0120345D02*
X0175285Y0120345D01*
X0175285Y0121344D02*
X0173105Y0121344D01*
X0172538Y0122342D02*
X0175085Y0122342D01*
X0175085Y0123341D02*
X0172905Y0123341D01*
X0172905Y0124339D02*
X0175085Y0124339D01*
X0175085Y0125338D02*
X0169921Y0125338D01*
X0168953Y0125338D02*
X0162151Y0125338D01*
X0162646Y0124339D02*
X0165969Y0124339D01*
X0165969Y0123341D02*
X0162881Y0123341D01*
X0162881Y0122342D02*
X0166336Y0122342D01*
X0165769Y0121344D02*
X0162515Y0121344D01*
X0161834Y0120345D02*
X0165769Y0120345D01*
X0159000Y0123000D02*
X0157000Y0121000D01*
X0144000Y0121000D01*
X0125500Y0121000D01*
X0123000Y0123500D01*
X0123000Y0124232D01*
X0124134Y0125366D01*
X0131311Y0125338D02*
X0155849Y0125338D01*
X0155354Y0124339D02*
X0146080Y0124339D01*
X0147148Y0123341D02*
X0155119Y0123341D01*
X0156913Y0126336D02*
X0134492Y0126336D01*
X0134492Y0127335D02*
X0151177Y0127335D01*
X0155823Y0127335D02*
X0165969Y0127335D01*
X0165969Y0127859D02*
X0165969Y0125980D01*
X0168953Y0125980D01*
X0168953Y0129161D01*
X0167271Y0129161D01*
X0166890Y0129059D01*
X0166547Y0128862D01*
X0166268Y0128582D01*
X0166071Y0128240D01*
X0165969Y0127859D01*
X0166124Y0128333D02*
X0156803Y0128333D01*
X0157217Y0129332D02*
X0175837Y0129332D01*
X0175085Y0128333D02*
X0172750Y0128333D01*
X0172905Y0127335D02*
X0175085Y0127335D01*
X0175085Y0126336D02*
X0172905Y0126336D01*
X0169921Y0126336D02*
X0168953Y0126336D01*
X0168953Y0127335D02*
X0169921Y0127335D01*
X0169921Y0128333D02*
X0168953Y0128333D01*
X0165969Y0126336D02*
X0161087Y0126336D01*
X0154311Y0137426D02*
X0154590Y0137705D01*
X0154788Y0138047D01*
X0154890Y0138428D01*
X0154890Y0140110D01*
X0152102Y0140110D01*
X0152102Y0137126D01*
X0153587Y0137126D01*
X0153969Y0137228D01*
X0154311Y0137426D01*
X0154127Y0137320D02*
X0192410Y0137320D01*
X0192410Y0138318D02*
X0154860Y0138318D01*
X0154890Y0139317D02*
X0192410Y0139317D01*
X0193204Y0140315D02*
X0152102Y0140315D01*
X0152102Y0140110D02*
X0152102Y0140685D01*
X0151528Y0140685D01*
X0151528Y0143669D01*
X0150043Y0143669D01*
X0149661Y0143567D01*
X0149319Y0143370D01*
X0149040Y0143090D01*
X0148842Y0142748D01*
X0148740Y0142367D01*
X0148740Y0140685D01*
X0151527Y0140685D01*
X0151527Y0140110D01*
X0148740Y0140110D01*
X0148740Y0138428D01*
X0148842Y0138047D01*
X0149040Y0137705D01*
X0149319Y0137426D01*
X0149661Y0137228D01*
X0150043Y0137126D01*
X0151528Y0137126D01*
X0151528Y0140110D01*
X0152102Y0140110D01*
X0152102Y0140685D02*
X0154890Y0140685D01*
X0154890Y0142367D01*
X0154788Y0142748D01*
X0154590Y0143090D01*
X0154311Y0143370D01*
X0153969Y0143567D01*
X0153587Y0143669D01*
X0152102Y0143669D01*
X0152102Y0140685D01*
X0152102Y0141314D02*
X0151528Y0141314D01*
X0151528Y0142312D02*
X0152102Y0142312D01*
X0152102Y0143311D02*
X0151528Y0143311D01*
X0149260Y0143311D02*
X0147172Y0143311D01*
X0147609Y0142312D02*
X0148740Y0142312D01*
X0148740Y0141314D02*
X0147609Y0141314D01*
X0147609Y0140315D02*
X0151527Y0140315D01*
X0151528Y0139317D02*
X0152102Y0139317D01*
X0152102Y0138318D02*
X0151528Y0138318D01*
X0151528Y0137320D02*
X0152102Y0137320D01*
X0149502Y0137320D02*
X0147007Y0137320D01*
X0147609Y0138318D02*
X0148770Y0138318D01*
X0148740Y0139317D02*
X0147609Y0139317D01*
X0144335Y0140398D02*
X0143937Y0140000D01*
X0142000Y0140000D01*
X0140539Y0141461D01*
X0129248Y0141461D01*
X0125580Y0141314D02*
X0118381Y0141314D01*
X0118381Y0142312D02*
X0125580Y0142312D01*
X0125580Y0143311D02*
X0118158Y0143311D01*
X0117679Y0144309D02*
X0125580Y0144309D01*
X0125580Y0145308D02*
X0116656Y0145308D01*
X0114500Y0142000D02*
X0109000Y0142000D01*
X0103500Y0147500D01*
X0095948Y0147500D01*
X0095938Y0147510D01*
X0070338Y0147510D01*
X0074186Y0151299D02*
X0092090Y0151299D01*
X0091249Y0150301D02*
X0075027Y0150301D01*
X0072891Y0152298D02*
X0093385Y0152298D01*
X0098491Y0152298D02*
X0107309Y0152298D01*
X0106544Y0151299D02*
X0099786Y0151299D01*
X0100627Y0150301D02*
X0106131Y0150301D01*
X0106119Y0149302D02*
X0104809Y0149302D01*
X0105808Y0148303D02*
X0106295Y0148303D01*
X0110000Y0149500D02*
X0120500Y0149500D01*
X0123500Y0152500D01*
X0168500Y0152500D01*
X0169500Y0151500D01*
X0169500Y0147280D01*
X0169780Y0147000D01*
X0173645Y0147305D02*
X0213584Y0147305D01*
X0214582Y0146306D02*
X0199452Y0146306D01*
X0197548Y0146306D02*
X0173645Y0146306D01*
X0173645Y0145308D02*
X0195819Y0145308D01*
X0195049Y0144309D02*
X0173627Y0144309D01*
X0173017Y0150301D02*
X0208796Y0150301D01*
X0208619Y0151299D02*
X0171700Y0151299D01*
X0171700Y0152298D02*
X0208629Y0152298D01*
X0209043Y0153296D02*
X0170815Y0153296D01*
X0163087Y0147000D02*
X0156500Y0147000D01*
X0155000Y0148500D01*
X0148240Y0148500D01*
X0148075Y0148665D01*
X0148909Y0149500D01*
X0144800Y0149302D02*
X0140187Y0149302D01*
X0140954Y0148303D02*
X0144800Y0148303D01*
X0144800Y0147305D02*
X0141367Y0147305D01*
X0141381Y0146306D02*
X0144800Y0146306D01*
X0145682Y0145308D02*
X0141207Y0145308D01*
X0140794Y0144309D02*
X0159239Y0144309D01*
X0155081Y0145308D02*
X0150468Y0145308D01*
X0154369Y0143311D02*
X0194635Y0143311D01*
X0194619Y0142312D02*
X0154890Y0142312D01*
X0154890Y0141314D02*
X0194203Y0141314D01*
X0194610Y0138610D02*
X0198500Y0142500D01*
X0202210Y0141314D02*
X0215800Y0141314D01*
X0215800Y0142312D02*
X0202381Y0142312D01*
X0202365Y0143311D02*
X0215800Y0143311D01*
X0215800Y0144309D02*
X0201951Y0144309D01*
X0201181Y0145308D02*
X0215581Y0145308D01*
X0218000Y0146000D02*
X0212500Y0151500D01*
X0209210Y0149302D02*
X0210302Y0148210D01*
X0218000Y0146000D02*
X0218000Y0128500D01*
X0216861Y0127361D01*
X0212500Y0127361D01*
X0213085Y0126776D01*
X0213085Y0123626D02*
X0213211Y0123500D01*
X0217500Y0123500D01*
X0224000Y0130000D01*
X0224000Y0134000D01*
X0215800Y0134324D02*
X0210009Y0134324D01*
X0210009Y0133326D02*
X0215800Y0133326D01*
X0215800Y0132327D02*
X0210009Y0132327D01*
X0210009Y0131329D02*
X0215800Y0131329D01*
X0215800Y0130330D02*
X0210009Y0130330D01*
X0210009Y0135323D02*
X0215800Y0135323D01*
X0215800Y0136321D02*
X0209543Y0136321D01*
X0215800Y0137320D02*
X0196810Y0137320D01*
X0197430Y0138318D02*
X0215800Y0138318D01*
X0215800Y0139317D02*
X0200806Y0139317D01*
X0201796Y0140315D02*
X0215800Y0140315D01*
X0194610Y0138610D02*
X0194610Y0132652D01*
X0182827Y0136321D02*
X0123381Y0136321D01*
X0123361Y0137320D02*
X0141662Y0137320D01*
X0140570Y0138318D02*
X0132644Y0138318D01*
X0125852Y0138318D02*
X0122948Y0138318D01*
X0122172Y0139317D02*
X0125580Y0139317D01*
X0125580Y0140315D02*
X0120431Y0140315D01*
X0118569Y0140315D02*
X0118003Y0140315D01*
X0113246Y0138318D02*
X0112293Y0138318D01*
X0111694Y0139317D02*
X0111294Y0139317D01*
X0110000Y0137500D02*
X0111500Y0136000D01*
X0119000Y0136000D01*
X0119500Y0136500D01*
X0123213Y0135323D02*
X0182361Y0135323D01*
X0183285Y0121344D02*
X0185855Y0121344D01*
X0185063Y0120345D02*
X0183285Y0120345D01*
X0206066Y0120345D02*
X0208885Y0120345D01*
X0208885Y0119347D02*
X0207142Y0119347D01*
X0207642Y0118348D02*
X0209085Y0118348D01*
X0207881Y0117350D02*
X0213035Y0117350D01*
X0213135Y0117350D02*
X0222635Y0117350D01*
X0222893Y0118348D02*
X0217085Y0118348D01*
X0217285Y0119347D02*
X0222889Y0119347D01*
X0222835Y0120345D02*
X0217285Y0120345D01*
X0209085Y0116351D02*
X0207881Y0116351D01*
X0207518Y0115353D02*
X0208885Y0115353D01*
X0208885Y0114354D02*
X0206843Y0114354D01*
X0207619Y0113416D02*
X0207619Y0113416D01*
X0207680Y0113356D02*
X0208885Y0113356D01*
X0208885Y0112357D02*
X0208678Y0112357D01*
X0225260Y0114177D02*
X0226303Y0115220D01*
X0191500Y0098813D02*
X0191461Y0098852D01*
X0191500Y0098813D02*
X0191500Y0084000D01*
X0188000Y0093500D02*
X0188311Y0093811D01*
X0188311Y0098852D01*
X0225713Y0077409D02*
X0226287Y0077409D01*
X0226287Y0076411D02*
X0225713Y0076411D01*
X0225713Y0075412D02*
X0226287Y0075412D01*
X0228636Y0075412D02*
X0230800Y0075412D01*
X0230800Y0076411D02*
X0229075Y0076411D01*
X0229075Y0077409D02*
X0230800Y0077409D01*
X0230800Y0078408D02*
X0229075Y0078408D01*
X0229075Y0079406D02*
X0230800Y0079406D01*
X0230800Y0080405D02*
X0228855Y0080405D01*
X0229004Y0081403D02*
X0230800Y0081403D01*
X0230800Y0082402D02*
X0229275Y0082402D01*
X0229275Y0083400D02*
X0230800Y0083400D01*
X0207500Y0069000D02*
X0193480Y0054980D01*
X0228586Y0033475D02*
X0234367Y0033475D01*
X0234367Y0034473D02*
X0229584Y0034473D01*
X0230583Y0035472D02*
X0234367Y0035472D01*
X0234367Y0036470D02*
X0231581Y0036470D01*
X0232580Y0037469D02*
X0234367Y0037469D01*
X0234367Y0038467D02*
X0233579Y0038467D01*
X0234367Y0030479D02*
X0231266Y0030479D01*
X0233406Y0029481D02*
X0234367Y0029481D01*
X0142916Y0029381D02*
X0142916Y0029381D01*
X0070365Y0083400D02*
X0067969Y0083400D01*
X0068213Y0084399D02*
X0070500Y0084399D01*
X0070500Y0085397D02*
X0068213Y0085397D01*
X0068413Y0082402D02*
X0069366Y0082402D01*
X0108673Y0103114D02*
X0108673Y0115173D01*
X0114000Y0120500D01*
X0116338Y0117350D02*
X0119615Y0117350D01*
X0118616Y0118348D02*
X0117310Y0118348D01*
X0120613Y0116351D02*
X0112962Y0116351D01*
X0111964Y0115353D02*
X0121612Y0115353D01*
X0122610Y0114354D02*
X0110965Y0114354D01*
X0110873Y0113356D02*
X0123609Y0113356D01*
X0124607Y0112357D02*
X0110873Y0112357D01*
X0110873Y0111359D02*
X0125606Y0111359D01*
X0126604Y0110360D02*
X0110873Y0110360D01*
X0110873Y0109362D02*
X0127630Y0109362D01*
X0120873Y0107365D02*
X0134473Y0107365D01*
X0134473Y0106366D02*
X0120873Y0106366D01*
X0120873Y0105368D02*
X0134473Y0105368D01*
X0134473Y0104369D02*
X0120873Y0104369D01*
X0120873Y0103370D02*
X0134473Y0103370D01*
X0134473Y0102372D02*
X0120873Y0102372D01*
X0120873Y0101373D02*
X0134473Y0101373D01*
X0134473Y0100375D02*
X0120873Y0100375D01*
X0120873Y0099376D02*
X0134473Y0099376D01*
X0134705Y0098378D02*
X0120641Y0098378D01*
X0120129Y0108363D02*
X0135218Y0108363D01*
X0134492Y0123341D02*
X0140852Y0123341D01*
X0141920Y0124339D02*
X0134492Y0124339D01*
X0117185Y0133326D02*
X0099959Y0133326D01*
X0098909Y0134324D02*
X0110064Y0134324D01*
X0110000Y0137500D02*
X0065500Y0137500D01*
X0065449Y0137551D01*
X0057996Y0137551D01*
X0054328Y0137320D02*
X0050307Y0137320D01*
X0050307Y0138318D02*
X0054328Y0138318D01*
X0054328Y0139317D02*
X0050183Y0139317D01*
X0050205Y0139280D02*
X0050007Y0139622D01*
X0049728Y0139901D01*
X0049386Y0140099D01*
X0049005Y0140201D01*
X0044386Y0140201D01*
X0044386Y0135854D01*
X0050307Y0135854D01*
X0050307Y0138898D01*
X0050205Y0139280D01*
X0050307Y0136321D02*
X0054328Y0136321D01*
X0054328Y0135323D02*
X0044386Y0135323D01*
X0044386Y0134854D02*
X0044386Y0135854D01*
X0043386Y0135854D01*
X0043386Y0134854D01*
X0044386Y0134854D01*
X0044386Y0130508D01*
X0049005Y0130508D01*
X0049386Y0130610D01*
X0049728Y0130808D01*
X0050007Y0131087D01*
X0050205Y0131429D01*
X0050307Y0131810D01*
X0050307Y0134854D01*
X0044386Y0134854D01*
X0044386Y0134324D02*
X0043386Y0134324D01*
X0043386Y0134854D02*
X0043386Y0130508D01*
X0038767Y0130508D01*
X0038386Y0130610D01*
X0038044Y0130808D01*
X0037764Y0131087D01*
X0037567Y0131429D01*
X0037465Y0131810D01*
X0037465Y0134854D01*
X0043386Y0134854D01*
X0043386Y0135323D02*
X0023200Y0135323D01*
X0023200Y0136321D02*
X0037465Y0136321D01*
X0037465Y0135854D02*
X0043386Y0135854D01*
X0043386Y0140201D01*
X0038767Y0140201D01*
X0038386Y0140099D01*
X0038044Y0139901D01*
X0037764Y0139622D01*
X0037567Y0139280D01*
X0037465Y0138898D01*
X0037465Y0135854D01*
X0037465Y0137320D02*
X0023200Y0137320D01*
X0023200Y0138318D02*
X0037465Y0138318D01*
X0037588Y0139317D02*
X0023200Y0139317D01*
X0023200Y0140315D02*
X0054328Y0140315D01*
X0055221Y0141314D02*
X0033833Y0141314D01*
X0032896Y0140926D02*
X0035113Y0141844D01*
X0036809Y0143541D01*
X0037728Y0145757D01*
X0037728Y0148156D01*
X0036809Y0150373D01*
X0035113Y0152069D01*
X0032896Y0152987D01*
X0030497Y0152987D01*
X0028281Y0152069D01*
X0026584Y0150373D01*
X0025666Y0148156D01*
X0025666Y0145757D01*
X0026584Y0143541D01*
X0028281Y0141844D01*
X0030497Y0140926D01*
X0032896Y0140926D01*
X0035581Y0142312D02*
X0068776Y0142312D01*
X0066900Y0143311D02*
X0036580Y0143311D01*
X0037128Y0144309D02*
X0065902Y0144309D01*
X0065405Y0145308D02*
X0037541Y0145308D01*
X0037728Y0146306D02*
X0064991Y0146306D01*
X0064938Y0147305D02*
X0037728Y0147305D01*
X0037667Y0148303D02*
X0064938Y0148303D01*
X0065235Y0149302D02*
X0037253Y0149302D01*
X0036839Y0150301D02*
X0065649Y0150301D01*
X0066490Y0151299D02*
X0035883Y0151299D01*
X0034562Y0152298D02*
X0067785Y0152298D01*
X0075270Y0145308D02*
X0091005Y0145308D01*
X0091502Y0144309D02*
X0074774Y0144309D01*
X0073775Y0143311D02*
X0092500Y0143311D01*
X0094376Y0142312D02*
X0071900Y0142312D01*
X0064566Y0135323D02*
X0061665Y0135323D01*
X0061307Y0134324D02*
X0067366Y0134324D01*
X0066317Y0133326D02*
X0061665Y0133326D01*
X0061665Y0132327D02*
X0065577Y0132327D01*
X0065163Y0131329D02*
X0061665Y0131329D01*
X0061665Y0130330D02*
X0064938Y0130330D01*
X0064938Y0129332D02*
X0061665Y0129332D01*
X0061665Y0128333D02*
X0065063Y0128333D01*
X0065477Y0127335D02*
X0061011Y0127335D01*
X0060350Y0126336D02*
X0066075Y0126336D01*
X0067074Y0125338D02*
X0060350Y0125338D01*
X0054982Y0127335D02*
X0023200Y0127335D01*
X0023200Y0128333D02*
X0054328Y0128333D01*
X0054328Y0129332D02*
X0023200Y0129332D01*
X0023200Y0130330D02*
X0054328Y0130330D01*
X0054328Y0131329D02*
X0050147Y0131329D01*
X0050307Y0132327D02*
X0054328Y0132327D01*
X0054328Y0133326D02*
X0050307Y0133326D01*
X0050307Y0134324D02*
X0054685Y0134324D01*
X0057996Y0130858D02*
X0058150Y0130705D01*
X0058150Y0120394D01*
X0073602Y0125338D02*
X0092674Y0125338D01*
X0091675Y0126336D02*
X0074601Y0126336D01*
X0075199Y0127335D02*
X0091077Y0127335D01*
X0092607Y0123341D02*
X0100229Y0123341D01*
X0100209Y0120209D02*
X0105000Y0125000D01*
X0100209Y0120209D02*
X0089201Y0120209D01*
X0102841Y0111359D02*
X0106473Y0111359D01*
X0106473Y0112357D02*
X0103893Y0112357D01*
X0104891Y0113356D02*
X0106473Y0113356D01*
X0106473Y0114354D02*
X0105890Y0114354D01*
X0107573Y0140315D02*
X0061665Y0140315D01*
X0060771Y0141314D02*
X0106575Y0141314D01*
X0105576Y0142312D02*
X0097500Y0142312D01*
X0099375Y0143311D02*
X0104578Y0143311D01*
X0103579Y0144309D02*
X0100374Y0144309D01*
X0108803Y0145308D02*
X0112344Y0145308D01*
X0112295Y0146306D02*
X0125580Y0146306D01*
X0125580Y0147305D02*
X0121416Y0147305D01*
X0122415Y0148303D02*
X0125580Y0148303D01*
X0125580Y0149302D02*
X0123413Y0149302D01*
X0120186Y0152298D02*
X0112691Y0152298D01*
X0110977Y0153296D02*
X0121185Y0153296D01*
X0129248Y0148154D02*
X0129402Y0148000D01*
X0133000Y0148000D01*
X0134500Y0146500D01*
X0137500Y0146500D01*
X0143272Y0141461D02*
X0144335Y0140398D01*
X0111321Y0144309D02*
X0109802Y0144309D01*
X0109023Y0153296D02*
X0023200Y0153296D01*
X0023200Y0152298D02*
X0028832Y0152298D01*
X0027510Y0151299D02*
X0023200Y0151299D01*
X0023200Y0150301D02*
X0026554Y0150301D01*
X0026141Y0149302D02*
X0023200Y0149302D01*
X0023200Y0148303D02*
X0025727Y0148303D01*
X0025666Y0147305D02*
X0023200Y0147305D01*
X0023200Y0146306D02*
X0025666Y0146306D01*
X0025852Y0145308D02*
X0023200Y0145308D01*
X0023200Y0144309D02*
X0026266Y0144309D01*
X0026814Y0143311D02*
X0023200Y0143311D01*
X0023200Y0142312D02*
X0027812Y0142312D01*
X0029561Y0141314D02*
X0023200Y0141314D01*
X0023200Y0134324D02*
X0037465Y0134324D01*
X0037465Y0133326D02*
X0023200Y0133326D01*
X0023200Y0132327D02*
X0037465Y0132327D01*
X0037625Y0131329D02*
X0023200Y0131329D01*
X0043386Y0131329D02*
X0044386Y0131329D01*
X0044386Y0132327D02*
X0043386Y0132327D01*
X0043386Y0133326D02*
X0044386Y0133326D01*
X0044386Y0136321D02*
X0043386Y0136321D01*
X0043386Y0137320D02*
X0044386Y0137320D01*
X0044386Y0138318D02*
X0043386Y0138318D01*
X0043386Y0139317D02*
X0044386Y0139317D01*
D29*
X0043886Y0120394D02*
X0058150Y0120394D01*
X0058740Y0119803D01*
X0058937Y0120000D01*
X0072000Y0120000D01*
X0078000Y0114000D01*
X0078000Y0097000D01*
X0100000Y0075000D01*
X0104000Y0075000D01*
X0104500Y0074500D01*
X0104500Y0084500D02*
X0121043Y0084500D01*
X0121303Y0084240D01*
X0121303Y0074240D02*
X0127260Y0074240D01*
X0129000Y0072500D01*
X0128500Y0062000D02*
X0128500Y0054409D01*
X0128437Y0047654D02*
X0138500Y0047654D01*
X0141500Y0044654D01*
X0141500Y0031500D01*
X0131500Y0021500D01*
X0086500Y0021500D01*
X0081500Y0026500D01*
X0081500Y0042500D01*
X0080000Y0044000D01*
X0059500Y0044000D01*
X0053500Y0050000D01*
X0053500Y0052500D01*
X0081500Y0044000D02*
X0081500Y0042500D01*
X0081500Y0044000D02*
X0083000Y0045500D01*
X0088248Y0045500D01*
X0089374Y0044374D01*
X0089374Y0041500D01*
X0066500Y0073500D02*
X0064744Y0075256D01*
X0064744Y0079697D01*
X0070197Y0079697D01*
X0073000Y0082500D01*
X0073000Y0088000D01*
X0066000Y0095000D01*
X0064000Y0095000D01*
X0059760Y0099240D01*
X0052760Y0099240D01*
X0052760Y0105146D02*
X0052760Y0107240D01*
X0052760Y0105146D02*
X0058740Y0111126D01*
X0058740Y0113110D01*
X0048000Y0112000D02*
X0035000Y0112000D01*
X0034272Y0112728D01*
X0029102Y0112728D01*
X0048000Y0112000D02*
X0048136Y0111998D01*
X0048272Y0111992D01*
X0048407Y0111983D01*
X0048543Y0111969D01*
X0048677Y0111952D01*
X0048812Y0111930D01*
X0048945Y0111905D01*
X0049078Y0111876D01*
X0049210Y0111844D01*
X0049341Y0111807D01*
X0049471Y0111767D01*
X0049600Y0111723D01*
X0049727Y0111676D01*
X0049853Y0111625D01*
X0049977Y0111570D01*
X0050100Y0111512D01*
X0050221Y0111450D01*
X0050341Y0111385D01*
X0050458Y0111316D01*
X0050573Y0111244D01*
X0050687Y0111169D01*
X0050798Y0111091D01*
X0050907Y0111009D01*
X0051013Y0110925D01*
X0051117Y0110837D01*
X0051219Y0110747D01*
X0051317Y0110654D01*
X0051414Y0110557D01*
X0051507Y0110459D01*
X0051597Y0110357D01*
X0051685Y0110253D01*
X0051769Y0110147D01*
X0051851Y0110038D01*
X0051929Y0109927D01*
X0052004Y0109813D01*
X0052076Y0109698D01*
X0052145Y0109581D01*
X0052210Y0109461D01*
X0052272Y0109340D01*
X0052330Y0109217D01*
X0052385Y0109093D01*
X0052436Y0108967D01*
X0052483Y0108840D01*
X0052527Y0108711D01*
X0052567Y0108581D01*
X0052604Y0108450D01*
X0052636Y0108318D01*
X0052665Y0108185D01*
X0052690Y0108052D01*
X0052712Y0107917D01*
X0052729Y0107783D01*
X0052743Y0107647D01*
X0052752Y0107512D01*
X0052758Y0107376D01*
X0052760Y0107240D01*
X0089201Y0113516D02*
X0101516Y0113516D01*
X0109500Y0121500D01*
X0109502Y0121633D01*
X0109508Y0121767D01*
X0109518Y0121900D01*
X0109532Y0122032D01*
X0109549Y0122164D01*
X0109571Y0122296D01*
X0109596Y0122427D01*
X0109626Y0122557D01*
X0109659Y0122686D01*
X0109696Y0122814D01*
X0109737Y0122941D01*
X0109782Y0123067D01*
X0109830Y0123191D01*
X0109882Y0123314D01*
X0109937Y0123435D01*
X0109997Y0123555D01*
X0110059Y0123673D01*
X0110125Y0123788D01*
X0110195Y0123902D01*
X0110268Y0124014D01*
X0110344Y0124123D01*
X0110423Y0124231D01*
X0110506Y0124335D01*
X0110591Y0124438D01*
X0110680Y0124537D01*
X0110771Y0124634D01*
X0110866Y0124729D01*
X0110963Y0124820D01*
X0111062Y0124909D01*
X0111165Y0124994D01*
X0111269Y0125077D01*
X0111377Y0125156D01*
X0111486Y0125232D01*
X0111598Y0125305D01*
X0111712Y0125375D01*
X0111827Y0125441D01*
X0111945Y0125503D01*
X0112065Y0125563D01*
X0112186Y0125618D01*
X0112309Y0125670D01*
X0112433Y0125718D01*
X0112559Y0125763D01*
X0112686Y0125804D01*
X0112814Y0125841D01*
X0112943Y0125874D01*
X0113073Y0125904D01*
X0113204Y0125929D01*
X0113336Y0125951D01*
X0113468Y0125968D01*
X0113600Y0125982D01*
X0113733Y0125992D01*
X0113867Y0125998D01*
X0114000Y0126000D01*
X0114500Y0126000D01*
X0114640Y0125998D01*
X0114780Y0125992D01*
X0114920Y0125982D01*
X0115060Y0125969D01*
X0115199Y0125951D01*
X0115338Y0125929D01*
X0115475Y0125904D01*
X0115613Y0125875D01*
X0115749Y0125842D01*
X0115884Y0125805D01*
X0116018Y0125764D01*
X0116151Y0125719D01*
X0116283Y0125671D01*
X0116413Y0125619D01*
X0116542Y0125564D01*
X0116669Y0125505D01*
X0116795Y0125442D01*
X0116919Y0125376D01*
X0117040Y0125307D01*
X0117160Y0125234D01*
X0117278Y0125157D01*
X0117393Y0125078D01*
X0117507Y0124995D01*
X0117617Y0124909D01*
X0117726Y0124820D01*
X0117832Y0124728D01*
X0117935Y0124633D01*
X0118036Y0124536D01*
X0118133Y0124435D01*
X0118228Y0124332D01*
X0118320Y0124226D01*
X0118409Y0124117D01*
X0118495Y0124007D01*
X0118578Y0123893D01*
X0118657Y0123778D01*
X0118734Y0123660D01*
X0118807Y0123540D01*
X0118876Y0123419D01*
X0118942Y0123295D01*
X0119005Y0123169D01*
X0119064Y0123042D01*
X0119119Y0122913D01*
X0119171Y0122783D01*
X0119219Y0122651D01*
X0119264Y0122518D01*
X0119305Y0122384D01*
X0119342Y0122249D01*
X0119375Y0122113D01*
X0119404Y0121975D01*
X0119429Y0121838D01*
X0119451Y0121699D01*
X0119469Y0121560D01*
X0119482Y0121420D01*
X0119492Y0121280D01*
X0119498Y0121140D01*
X0119500Y0121000D01*
X0129000Y0111500D01*
X0154500Y0111500D01*
X0160500Y0117500D01*
X0168134Y0117500D01*
X0169437Y0117500D02*
X0169437Y0118803D01*
X0169437Y0117500D02*
X0179112Y0117500D01*
X0179285Y0117327D02*
X0187327Y0117327D01*
X0188500Y0118500D01*
X0185000Y0112000D02*
X0205500Y0112000D01*
X0204000Y0113500D01*
X0204000Y0117000D01*
X0205500Y0112000D02*
X0209622Y0107878D01*
X0213085Y0107878D01*
X0213085Y0114177D02*
X0225260Y0114177D01*
X0185000Y0112000D02*
X0184000Y0111000D01*
X0179313Y0111000D01*
X0091000Y0111717D02*
X0091000Y0107000D01*
X0064744Y0079697D02*
X0063272Y0078224D01*
X0052748Y0078224D01*
X0051524Y0077000D01*
X0031500Y0077000D01*
X0029102Y0079398D01*
X0029102Y0082728D01*
X0138500Y0047654D02*
X0141154Y0047654D01*
X0144500Y0051000D01*
X0172953Y0051000D01*
X0173303Y0050650D01*
D30*
X0193000Y0048500D03*
X0218500Y0048500D03*
X0201500Y0031500D03*
X0155500Y0037500D03*
X0147500Y0044000D03*
X0143000Y0057500D03*
X0128500Y0062000D03*
X0129000Y0072500D03*
X0137500Y0085500D03*
X0163000Y0090500D03*
X0167000Y0097000D03*
X0188500Y0106500D03*
X0198500Y0108000D03*
X0204000Y0117000D03*
X0188500Y0118500D03*
X0159000Y0123000D03*
X0153500Y0130500D03*
X0144000Y0121000D03*
X0119500Y0136500D03*
X0114500Y0142000D03*
X0110000Y0149500D03*
X0137500Y0146500D03*
X0105000Y0125000D03*
X0114000Y0120500D03*
X0091000Y0107000D03*
X0096000Y0091000D03*
X0064000Y0095000D03*
X0052000Y0086500D03*
X0042000Y0082500D03*
X0066500Y0073500D03*
X0067000Y0056500D03*
X0053500Y0052500D03*
X0125000Y0030500D03*
X0193000Y0071000D03*
X0202500Y0087000D03*
X0224000Y0134000D03*
X0223000Y0141500D03*
X0212500Y0151500D03*
X0198500Y0142500D03*
D31*
X0213085Y0111028D02*
X0222972Y0111028D01*
X0226000Y0108000D01*
X0226000Y0102846D01*
X0226000Y0096154D02*
X0226000Y0083953D01*
M02*
