%
M48
M72
T01C0.02362
T02C0.03500
T03C0.04000
T04C0.04331
T05C0.05800
T06C0.08661
%
T01
X66732Y35461
X53500Y52500
X67000Y56500
X66500Y73500
X52000Y86500
X42000Y82500
X64000Y95000
X91000Y107000
X66732Y115972
X96000Y91000
X129000Y72500
X128500Y62000
X143000Y57500
X147500Y44000
X155500Y37500
X125000Y30500
X193000Y48500
X218500Y48500
X201500Y31500
X193000Y71000
X202500Y87000
X188500Y106500
X198500Y108000
X204000Y117000
X188500Y118500
X159000Y123000
X153500Y130500
X144000Y121000
X119500Y136500
X114500Y142000
X110000Y149500
X137500Y146500
X105000Y125000
X114000Y120500
X163000Y90500
X167000Y97000
X137500Y85500
X198500Y142500
X212500Y151500
X223000Y141500
X224000Y134000
T02
X121303Y84240
X121303Y74240
X104500Y74500
X104500Y84500
T03
X109374Y41500
X99374Y41500
X89374Y41500
X89374Y31500
X99374Y31500
X109374Y31500
X95938Y129710
X70338Y129710
X70338Y147510
X95938Y147510
T04
X29102Y112728
X29102Y82728
T05
X104500Y84500
X104500Y74500
X121303Y74240
X121303Y84240
T06
X31697Y146957
X229799Y24559
M30
